<svg width="1280" height="105" viewBox="0 0 1280 105" fill="none" xmlns="http://www.w3.org/2000/svg">
<path d="M489.562 18.16C489.018 18.16 488.5 18.0907 488.01 17.952C487.53 17.8133 487.098 17.6053 486.714 17.328C486.34 17.0507 486.042 16.6987 485.818 16.272C485.594 15.8453 485.471 15.344 485.45 14.768C485.45 14.672 485.482 14.592 485.546 14.528C485.61 14.4533 485.695 14.416 485.802 14.416H486.666C486.783 14.416 486.874 14.4533 486.938 14.528C487.012 14.592 487.06 14.6773 487.082 14.784C487.124 15.264 487.263 15.6533 487.498 15.952C487.732 16.24 488.031 16.4533 488.394 16.592C488.756 16.7307 489.156 16.8 489.594 16.8C490.404 16.8 491.023 16.5333 491.45 16C491.876 15.4667 492.09 14.7573 492.09 13.872V8.192H486.41C486.303 8.192 486.212 8.16 486.138 8.096C486.074 8.02133 486.042 7.93067 486.042 7.824V7.168C486.042 7.06133 486.074 6.976 486.138 6.912C486.212 6.83733 486.303 6.8 486.41 6.8H493.306C493.423 6.8 493.514 6.83733 493.578 6.912C493.652 6.976 493.69 7.06667 493.69 7.184V13.904C493.69 14.768 493.524 15.52 493.194 16.16C492.863 16.8 492.394 17.296 491.786 17.648C491.178 17.9893 490.436 18.16 489.562 18.16ZM499.894 18.16C499.084 18.16 498.406 18.0053 497.862 17.696C497.318 17.3867 496.902 16.96 496.614 16.416C496.326 15.8613 496.166 15.232 496.134 14.528C496.124 14.3467 496.118 14.1173 496.118 13.84C496.118 13.552 496.124 13.3227 496.134 13.152C496.166 12.4373 496.326 11.808 496.614 11.264C496.913 10.72 497.334 10.2933 497.878 9.984C498.422 9.67467 499.094 9.52 499.894 9.52C500.694 9.52 501.366 9.67467 501.91 9.984C502.454 10.2933 502.87 10.72 503.158 11.264C503.457 11.808 503.622 12.4373 503.654 13.152C503.665 13.3227 503.67 13.552 503.67 13.84C503.67 14.1173 503.665 14.3467 503.654 14.528C503.622 15.232 503.462 15.8613 503.174 16.416C502.886 16.96 502.47 17.3867 501.926 17.696C501.382 18.0053 500.705 18.16 499.894 18.16ZM499.894 16.928C500.556 16.928 501.084 16.72 501.478 16.304C501.873 15.8773 502.086 15.2587 502.118 14.448C502.129 14.288 502.134 14.0853 502.134 13.84C502.134 13.5947 502.129 13.392 502.118 13.232C502.086 12.4213 501.873 11.808 501.478 11.392C501.084 10.9653 500.556 10.752 499.894 10.752C499.233 10.752 498.7 10.9653 498.294 11.392C497.9 11.808 497.692 12.4213 497.67 13.232C497.66 13.392 497.654 13.5947 497.654 13.84C497.654 14.0853 497.66 14.288 497.67 14.448C497.692 15.2587 497.9 15.8773 498.294 16.304C498.7 16.72 499.233 16.928 499.894 16.928ZM506.362 18C506.255 18 506.164 17.968 506.09 17.904C506.026 17.8293 505.994 17.7387 505.994 17.632V10.048C505.994 9.94133 506.026 9.856 506.09 9.792C506.164 9.71733 506.255 9.68 506.362 9.68H507.13C507.236 9.68 507.322 9.71733 507.386 9.792C507.46 9.856 507.498 9.94133 507.498 10.048V17.632C507.498 17.7387 507.46 17.8293 507.386 17.904C507.322 17.968 507.236 18 507.13 18H506.362ZM506.234 8.128C506.127 8.128 506.036 8.096 505.962 8.032C505.898 7.95733 505.866 7.86667 505.866 7.76V6.896C505.866 6.78933 505.898 6.69867 505.962 6.624C506.036 6.54933 506.127 6.512 506.234 6.512H507.242C507.348 6.512 507.439 6.54933 507.514 6.624C507.588 6.69867 507.626 6.78933 507.626 6.896V7.76C507.626 7.86667 507.588 7.95733 507.514 8.032C507.439 8.096 507.348 8.128 507.242 8.128H506.234ZM510.697 18C510.591 18 510.5 17.968 510.425 17.904C510.361 17.8293 510.329 17.7387 510.329 17.632V10.048C510.329 9.94133 510.361 9.856 510.425 9.792C510.5 9.71733 510.591 9.68 510.697 9.68H511.449C511.556 9.68 511.641 9.71733 511.705 9.792C511.78 9.856 511.817 9.94133 511.817 10.048V10.752C512.095 10.3893 512.441 10.096 512.857 9.872C513.284 9.63733 513.828 9.52 514.489 9.52C515.183 9.52 515.769 9.67467 516.249 9.984C516.74 10.2827 517.108 10.704 517.353 11.248C517.609 11.7813 517.737 12.4053 517.737 13.12V17.632C517.737 17.7387 517.7 17.8293 517.625 17.904C517.561 17.968 517.476 18 517.369 18H516.569C516.463 18 516.372 17.968 516.297 17.904C516.233 17.8293 516.201 17.7387 516.201 17.632V13.2C516.201 12.4533 516.02 11.872 515.657 11.456C515.295 11.0293 514.761 10.816 514.057 10.816C513.396 10.816 512.863 11.0293 512.457 11.456C512.063 11.872 511.865 12.4533 511.865 13.2V17.632C511.865 17.7387 511.828 17.8293 511.753 17.904C511.689 17.968 511.604 18 511.497 18H510.697ZM529.826 18C529.72 18 529.629 17.968 529.554 17.904C529.49 17.8293 529.458 17.7387 529.458 17.632V15.328H524.274C524.168 15.328 524.077 15.296 524.002 15.232C523.938 15.1573 523.906 15.0667 523.906 14.96V14.32C523.906 14.2773 523.917 14.2133 523.938 14.128C523.97 14.032 524.018 13.936 524.082 13.84L528.882 7.072C529.01 6.89067 529.208 6.8 529.474 6.8H530.626C530.733 6.8 530.818 6.83733 530.882 6.912C530.957 6.976 530.994 7.06133 530.994 7.168V13.936H532.434C532.552 13.936 532.642 13.9733 532.706 14.048C532.781 14.112 532.818 14.1973 532.818 14.304V14.96C532.818 15.0667 532.781 15.1573 532.706 15.232C532.642 15.296 532.557 15.328 532.45 15.328H530.994V17.632C530.994 17.7387 530.957 17.8293 530.882 17.904C530.818 17.968 530.733 18 530.626 18H529.826ZM525.618 13.968H529.474V8.48L525.618 13.968ZM534.505 19.2C534.42 19.2 534.351 19.168 534.297 19.104C534.255 19.04 534.239 18.96 534.249 18.864L534.617 16.576C534.639 16.448 534.681 16.3413 534.745 16.256C534.82 16.16 534.927 16.112 535.065 16.112H536.137C536.212 16.112 536.271 16.1387 536.313 16.192C536.367 16.2453 536.393 16.3093 536.393 16.384C536.393 16.4693 536.377 16.5547 536.345 16.64L535.497 18.832C535.455 18.9387 535.396 19.024 535.321 19.088C535.257 19.1627 535.161 19.2 535.033 19.2H534.505ZM542.575 18.16C541.839 18.16 541.215 18.048 540.703 17.824C540.202 17.5893 539.791 17.2693 539.471 16.864C539.151 16.4587 538.917 15.9947 538.767 15.472C538.629 14.9493 538.549 14.3947 538.527 13.808C538.517 13.52 538.506 13.216 538.495 12.896C538.495 12.576 538.495 12.2507 538.495 11.92C538.506 11.5893 538.517 11.2747 538.527 10.976C538.538 10.3893 538.618 9.83467 538.767 9.312C538.927 8.78933 539.167 8.33067 539.487 7.936C539.807 7.53067 540.218 7.216 540.719 6.992C541.231 6.75733 541.85 6.64 542.575 6.64C543.311 6.64 543.93 6.75733 544.431 6.992C544.943 7.216 545.359 7.53067 545.679 7.936C545.999 8.33067 546.234 8.78933 546.383 9.312C546.543 9.83467 546.629 10.3893 546.639 10.976C546.65 11.2747 546.655 11.5893 546.655 11.92C546.666 12.2507 546.666 12.576 546.655 12.896C546.655 13.216 546.65 13.52 546.639 13.808C546.629 14.3947 546.543 14.9493 546.383 15.472C546.234 15.9947 545.999 16.4587 545.679 16.864C545.37 17.2693 544.959 17.5893 544.447 17.824C543.946 18.048 543.322 18.16 542.575 18.16ZM542.575 16.784C543.407 16.784 544.021 16.512 544.415 15.968C544.821 15.424 545.029 14.6773 545.039 13.728C545.061 13.4187 545.071 13.12 545.071 12.832C545.071 12.5333 545.071 12.24 545.071 11.952C545.071 11.6533 545.061 11.36 545.039 11.072C545.029 10.144 544.821 9.40267 544.415 8.848C544.021 8.28267 543.407 8 542.575 8C541.754 8 541.141 8.28267 540.735 8.848C540.341 9.40267 540.133 10.144 540.111 11.072C540.111 11.36 540.106 11.6533 540.095 11.952C540.095 12.24 540.095 12.5333 540.095 12.832C540.106 13.12 540.111 13.4187 540.111 13.728C540.133 14.6773 540.346 15.424 540.751 15.968C541.157 16.512 541.765 16.784 542.575 16.784ZM553.052 18.16C552.316 18.16 551.692 18.048 551.18 17.824C550.678 17.5893 550.268 17.2693 549.948 16.864C549.628 16.4587 549.393 15.9947 549.244 15.472C549.105 14.9493 549.025 14.3947 549.004 13.808C548.993 13.52 548.982 13.216 548.972 12.896C548.972 12.576 548.972 12.2507 548.972 11.92C548.982 11.5893 548.993 11.2747 549.004 10.976C549.014 10.3893 549.094 9.83467 549.244 9.312C549.404 8.78933 549.644 8.33067 549.964 7.936C550.284 7.53067 550.694 7.216 551.196 6.992C551.708 6.75733 552.326 6.64 553.052 6.64C553.788 6.64 554.406 6.75733 554.908 6.992C555.42 7.216 555.836 7.53067 556.156 7.936C556.476 8.33067 556.71 8.78933 556.86 9.312C557.02 9.83467 557.105 10.3893 557.116 10.976C557.126 11.2747 557.132 11.5893 557.132 11.92C557.142 12.2507 557.142 12.576 557.132 12.896C557.132 13.216 557.126 13.52 557.116 13.808C557.105 14.3947 557.02 14.9493 556.86 15.472C556.71 15.9947 556.476 16.4587 556.156 16.864C555.846 17.2693 555.436 17.5893 554.924 17.824C554.422 18.048 553.798 18.16 553.052 18.16ZM553.052 16.784C553.884 16.784 554.497 16.512 554.892 15.968C555.297 15.424 555.505 14.6773 555.516 13.728C555.537 13.4187 555.548 13.12 555.548 12.832C555.548 12.5333 555.548 12.24 555.548 11.952C555.548 11.6533 555.537 11.36 555.516 11.072C555.505 10.144 555.297 9.40267 554.892 8.848C554.497 8.28267 553.884 8 553.052 8C552.23 8 551.617 8.28267 551.212 8.848C550.817 9.40267 550.609 10.144 550.588 11.072C550.588 11.36 550.582 11.6533 550.572 11.952C550.572 12.24 550.572 12.5333 550.572 12.832C550.582 13.12 550.588 13.4187 550.588 13.728C550.609 14.6773 550.822 15.424 551.228 15.968C551.633 16.512 552.241 16.784 553.052 16.784ZM563.528 18.16C562.792 18.16 562.168 18.048 561.656 17.824C561.155 17.5893 560.744 17.2693 560.424 16.864C560.104 16.4587 559.869 15.9947 559.72 15.472C559.581 14.9493 559.501 14.3947 559.48 13.808C559.469 13.52 559.459 13.216 559.448 12.896C559.448 12.576 559.448 12.2507 559.448 11.92C559.459 11.5893 559.469 11.2747 559.48 10.976C559.491 10.3893 559.571 9.83467 559.72 9.312C559.88 8.78933 560.12 8.33067 560.44 7.936C560.76 7.53067 561.171 7.216 561.672 6.992C562.184 6.75733 562.803 6.64 563.528 6.64C564.264 6.64 564.883 6.75733 565.384 6.992C565.896 7.216 566.312 7.53067 566.632 7.936C566.952 8.33067 567.187 8.78933 567.336 9.312C567.496 9.83467 567.581 10.3893 567.592 10.976C567.603 11.2747 567.608 11.5893 567.608 11.92C567.619 12.2507 567.619 12.576 567.608 12.896C567.608 13.216 567.603 13.52 567.592 13.808C567.581 14.3947 567.496 14.9493 567.336 15.472C567.187 15.9947 566.952 16.4587 566.632 16.864C566.323 17.2693 565.912 17.5893 565.4 17.824C564.899 18.048 564.275 18.16 563.528 18.16ZM563.528 16.784C564.36 16.784 564.973 16.512 565.368 15.968C565.773 15.424 565.981 14.6773 565.992 13.728C566.013 13.4187 566.024 13.12 566.024 12.832C566.024 12.5333 566.024 12.24 566.024 11.952C566.024 11.6533 566.013 11.36 565.992 11.072C565.981 10.144 565.773 9.40267 565.368 8.848C564.973 8.28267 564.36 8 563.528 8C562.707 8 562.093 8.28267 561.688 8.848C561.293 9.40267 561.085 10.144 561.064 11.072C561.064 11.36 561.059 11.6533 561.048 11.952C561.048 12.24 561.048 12.5333 561.048 12.832C561.059 13.12 561.064 13.4187 561.064 13.728C561.085 14.6773 561.299 15.424 561.704 15.968C562.109 16.512 562.717 16.784 563.528 16.784ZM573.62 17.472C573.514 17.472 573.423 17.44 573.348 17.376C573.284 17.3013 573.252 17.2107 573.252 17.104V13.776H569.972C569.866 13.776 569.775 13.744 569.7 13.68C569.636 13.6053 569.604 13.5147 569.604 13.408V12.896C569.604 12.7893 569.636 12.704 569.7 12.64C569.775 12.5653 569.866 12.528 569.972 12.528H573.252V9.296C573.252 9.18933 573.284 9.104 573.348 9.04C573.423 8.96533 573.514 8.928 573.62 8.928H574.18C574.287 8.928 574.372 8.96533 574.436 9.04C574.511 9.104 574.548 9.18933 574.548 9.296V12.528H577.844C577.951 12.528 578.036 12.5653 578.1 12.64C578.175 12.704 578.212 12.7893 578.212 12.896V13.408C578.212 13.5147 578.175 13.6053 578.1 13.68C578.036 13.744 577.951 13.776 577.844 13.776H574.548V17.104C574.548 17.2107 574.511 17.3013 574.436 17.376C574.372 17.44 574.287 17.472 574.18 17.472H573.62ZM587.991 18.16C587.234 18.16 586.578 18.016 586.023 17.728C585.479 17.4293 585.058 17.008 584.759 16.464C584.46 15.9093 584.3 15.248 584.279 14.48C584.268 14.32 584.263 14.1067 584.263 13.84C584.263 13.5733 584.268 13.36 584.279 13.2C584.3 12.432 584.46 11.776 584.759 11.232C585.058 10.6773 585.479 10.256 586.023 9.968C586.578 9.66933 587.234 9.52 587.991 9.52C588.61 9.52 589.138 9.60533 589.575 9.776C590.023 9.94667 590.391 10.1653 590.679 10.432C590.967 10.6987 591.18 10.9867 591.319 11.296C591.468 11.6053 591.548 11.8987 591.559 12.176C591.57 12.2827 591.538 12.368 591.463 12.432C591.388 12.496 591.298 12.528 591.191 12.528H590.423C590.316 12.528 590.236 12.5067 590.183 12.464C590.13 12.4107 590.076 12.3253 590.023 12.208C589.831 11.6853 589.57 11.3173 589.239 11.104C588.908 10.8907 588.498 10.784 588.007 10.784C587.367 10.784 586.844 10.9813 586.439 11.376C586.044 11.7707 585.831 12.4053 585.799 13.28C585.788 13.664 585.788 14.0373 585.799 14.4C585.831 15.2853 586.044 15.9253 586.439 16.32C586.844 16.704 587.367 16.896 588.007 16.896C588.498 16.896 588.908 16.7893 589.239 16.576C589.57 16.3627 589.831 15.9947 590.023 15.472C590.076 15.3547 590.13 15.2693 590.183 15.216C590.236 15.1627 590.316 15.136 590.423 15.136H591.191C591.298 15.136 591.388 15.1733 591.463 15.248C591.538 15.312 591.57 15.3973 591.559 15.504C591.548 15.728 591.5 15.9573 591.415 16.192C591.33 16.4267 591.191 16.6667 590.999 16.912C590.818 17.1467 590.588 17.36 590.311 17.552C590.034 17.7333 589.703 17.8827 589.319 18C588.935 18.1067 588.492 18.16 587.991 18.16ZM597.187 18.16C596.377 18.16 595.699 18.0053 595.155 17.696C594.611 17.3867 594.195 16.96 593.907 16.416C593.619 15.8613 593.459 15.232 593.427 14.528C593.417 14.3467 593.411 14.1173 593.411 13.84C593.411 13.552 593.417 13.3227 593.427 13.152C593.459 12.4373 593.619 11.808 593.907 11.264C594.206 10.72 594.627 10.2933 595.171 9.984C595.715 9.67467 596.387 9.52 597.187 9.52C597.987 9.52 598.659 9.67467 599.203 9.984C599.747 10.2933 600.163 10.72 600.451 11.264C600.75 11.808 600.915 12.4373 600.947 13.152C600.958 13.3227 600.963 13.552 600.963 13.84C600.963 14.1173 600.958 14.3467 600.947 14.528C600.915 15.232 600.755 15.8613 600.467 16.416C600.179 16.96 599.763 17.3867 599.219 17.696C598.675 18.0053 597.998 18.16 597.187 18.16ZM597.187 16.928C597.849 16.928 598.377 16.72 598.771 16.304C599.166 15.8773 599.379 15.2587 599.411 14.448C599.422 14.288 599.427 14.0853 599.427 13.84C599.427 13.5947 599.422 13.392 599.411 13.232C599.379 12.4213 599.166 11.808 598.771 11.392C598.377 10.9653 597.849 10.752 597.187 10.752C596.526 10.752 595.993 10.9653 595.587 11.392C595.193 11.808 594.985 12.4213 594.963 13.232C594.953 13.392 594.947 13.5947 594.947 13.84C594.947 14.0853 594.953 14.288 594.963 14.448C594.985 15.2587 595.193 15.8773 595.587 16.304C595.993 16.72 596.526 16.928 597.187 16.928ZM603.655 18C603.548 18 603.457 17.968 603.383 17.904C603.319 17.8293 603.287 17.7387 603.287 17.632V10.048C603.287 9.94133 603.319 9.856 603.383 9.792C603.457 9.71733 603.548 9.68 603.655 9.68H604.375C604.481 9.68 604.567 9.71733 604.631 9.792C604.705 9.856 604.743 9.94133 604.743 10.048V10.608C604.988 10.2773 605.297 10.016 605.671 9.824C606.044 9.62133 606.492 9.52 607.015 9.52C608.22 9.50933 609.073 10 609.575 10.992C609.82 10.544 610.177 10.1867 610.647 9.92C611.116 9.65333 611.649 9.52 612.247 9.52C612.801 9.52 613.303 9.648 613.751 9.904C614.209 10.16 614.567 10.5493 614.823 11.072C615.089 11.584 615.223 12.2293 615.223 13.008V17.632C615.223 17.7387 615.185 17.8293 615.111 17.904C615.047 17.968 614.961 18 614.855 18H614.103C613.996 18 613.905 17.968 613.831 17.904C613.767 17.8293 613.735 17.7387 613.735 17.632V13.152C613.735 12.5547 613.649 12.0853 613.479 11.744C613.308 11.4027 613.079 11.1627 612.791 11.024C612.503 10.8853 612.188 10.816 611.847 10.816C611.569 10.816 611.287 10.8853 610.999 11.024C610.711 11.1627 610.471 11.4027 610.279 11.744C610.097 12.0853 610.007 12.5547 610.007 13.152V17.632C610.007 17.7387 609.969 17.8293 609.895 17.904C609.831 17.968 609.745 18 609.639 18H608.887C608.78 18 608.689 17.968 608.615 17.904C608.551 17.8293 608.519 17.7387 608.519 17.632V13.152C608.519 12.5547 608.428 12.0853 608.247 11.744C608.065 11.4027 607.831 11.1627 607.543 11.024C607.255 10.8853 606.951 10.816 606.631 10.816C606.353 10.816 606.071 10.8853 605.783 11.024C605.495 11.1627 605.255 11.4027 605.063 11.744C604.881 12.0853 604.791 12.5493 604.791 13.136V17.632C604.791 17.7387 604.753 17.8293 604.679 17.904C604.615 17.968 604.529 18 604.423 18H603.655ZM618.21 21.04C618.103 21.04 618.012 21.0027 617.938 20.928C617.874 20.864 617.842 20.7787 617.842 20.672V10.048C617.842 9.94133 617.874 9.856 617.938 9.792C618.012 9.71733 618.103 9.68 618.21 9.68H618.946C619.052 9.68 619.138 9.71733 619.202 9.792C619.276 9.856 619.314 9.94133 619.314 10.048V10.752C619.57 10.4 619.911 10.1067 620.338 9.872C620.764 9.63733 621.298 9.52 621.938 9.52C622.535 9.52 623.042 9.62133 623.458 9.824C623.884 10.0267 624.231 10.304 624.498 10.656C624.775 11.008 624.983 11.408 625.122 11.856C625.26 12.304 625.34 12.784 625.362 13.296C625.372 13.4667 625.378 13.648 625.378 13.84C625.378 14.032 625.372 14.2133 625.362 14.384C625.34 14.8853 625.26 15.3653 625.122 15.824C624.983 16.272 624.775 16.672 624.498 17.024C624.231 17.3653 623.884 17.6427 623.458 17.856C623.042 18.0587 622.535 18.16 621.938 18.16C621.319 18.16 620.796 18.048 620.37 17.824C619.954 17.5893 619.612 17.3013 619.346 16.96V20.672C619.346 20.7787 619.314 20.864 619.25 20.928C619.186 21.0027 619.1 21.04 618.994 21.04H618.21ZM621.602 16.864C622.156 16.864 622.588 16.7467 622.898 16.512C623.218 16.2667 623.447 15.952 623.586 15.568C623.724 15.1733 623.804 14.752 623.826 14.304C623.836 13.9947 623.836 13.6853 623.826 13.376C623.804 12.928 623.724 12.512 623.586 12.128C623.447 11.7333 623.218 11.4187 622.898 11.184C622.588 10.9387 622.156 10.816 621.602 10.816C621.079 10.816 620.652 10.9387 620.322 11.184C620.002 11.4293 619.762 11.744 619.602 12.128C619.452 12.5013 619.367 12.8853 619.346 13.28C619.335 13.4507 619.33 13.6533 619.33 13.888C619.33 14.1227 619.335 14.3307 619.346 14.512C619.356 14.8853 619.442 15.2533 619.602 15.616C619.772 15.9787 620.023 16.2773 620.354 16.512C620.684 16.7467 621.1 16.864 621.602 16.864ZM629.997 18.16C629.463 18.16 628.978 18.0533 628.541 17.84C628.103 17.6267 627.751 17.3387 627.485 16.976C627.218 16.6133 627.085 16.2027 627.085 15.744C627.085 15.008 627.383 14.4213 627.981 13.984C628.578 13.5467 629.357 13.2587 630.317 13.12L632.701 12.784V12.32C632.701 11.808 632.551 11.408 632.253 11.12C631.965 10.832 631.49 10.688 630.829 10.688C630.359 10.688 629.975 10.784 629.677 10.976C629.378 11.168 629.17 11.4133 629.053 11.712C628.989 11.872 628.877 11.952 628.717 11.952H627.997C627.879 11.952 627.789 11.92 627.725 11.856C627.671 11.7813 627.645 11.696 627.645 11.6C627.645 11.44 627.703 11.2427 627.821 11.008C627.949 10.7733 628.141 10.544 628.397 10.32C628.653 10.096 628.978 9.90933 629.373 9.76C629.778 9.6 630.269 9.52 630.845 9.52C631.485 9.52 632.023 9.60533 632.461 9.776C632.898 9.936 633.239 10.1547 633.485 10.432C633.741 10.7093 633.922 11.024 634.029 11.376C634.146 11.728 634.205 12.0853 634.205 12.448V17.632C634.205 17.7387 634.167 17.8293 634.093 17.904C634.029 17.968 633.943 18 633.837 18H633.101C632.983 18 632.893 17.968 632.829 17.904C632.765 17.8293 632.733 17.7387 632.733 17.632V16.944C632.594 17.136 632.407 17.328 632.173 17.52C631.938 17.7013 631.645 17.856 631.293 17.984C630.941 18.1013 630.509 18.16 629.997 18.16ZM630.333 16.96C630.77 16.96 631.17 16.8693 631.533 16.688C631.895 16.496 632.178 16.2027 632.381 15.808C632.594 15.4133 632.701 14.9173 632.701 14.32V13.872L630.845 14.144C630.087 14.2507 629.517 14.432 629.133 14.688C628.749 14.9333 628.557 15.248 628.557 15.632C628.557 15.9307 628.642 16.1813 628.813 16.384C628.994 16.576 629.218 16.72 629.485 16.816C629.762 16.912 630.045 16.96 630.333 16.96ZM637.193 18C637.086 18 636.996 17.968 636.921 17.904C636.857 17.8293 636.825 17.7387 636.825 17.632V10.048C636.825 9.94133 636.857 9.856 636.921 9.792C636.996 9.71733 637.086 9.68 637.193 9.68H637.945C638.052 9.68 638.137 9.71733 638.201 9.792C638.276 9.856 638.313 9.94133 638.313 10.048V10.752C638.59 10.3893 638.937 10.096 639.353 9.872C639.78 9.63733 640.324 9.52 640.985 9.52C641.678 9.52 642.265 9.67467 642.745 9.984C643.236 10.2827 643.604 10.704 643.849 11.248C644.105 11.7813 644.233 12.4053 644.233 13.12V17.632C644.233 17.7387 644.196 17.8293 644.121 17.904C644.057 17.968 643.972 18 643.865 18H643.065C642.958 18 642.868 17.968 642.793 17.904C642.729 17.8293 642.697 17.7387 642.697 17.632V13.2C642.697 12.4533 642.516 11.872 642.153 11.456C641.79 11.0293 641.257 10.816 640.553 10.816C639.892 10.816 639.358 11.0293 638.953 11.456C638.558 11.872 638.361 12.4533 638.361 13.2V17.632C638.361 17.7387 638.324 17.8293 638.249 17.904C638.185 17.968 638.1 18 637.993 18H637.193ZM647.216 18C647.109 18 647.019 17.968 646.944 17.904C646.88 17.8293 646.848 17.7387 646.848 17.632V10.048C646.848 9.94133 646.88 9.856 646.944 9.792C647.019 9.71733 647.109 9.68 647.216 9.68H647.984C648.091 9.68 648.176 9.71733 648.24 9.792C648.315 9.856 648.352 9.94133 648.352 10.048V17.632C648.352 17.7387 648.315 17.8293 648.24 17.904C648.176 17.968 648.091 18 647.984 18H647.216ZM647.088 8.128C646.981 8.128 646.891 8.096 646.816 8.032C646.752 7.95733 646.72 7.86667 646.72 7.76V6.896C646.72 6.78933 646.752 6.69867 646.816 6.624C646.891 6.54933 646.981 6.512 647.088 6.512H648.096C648.203 6.512 648.293 6.54933 648.368 6.624C648.443 6.69867 648.48 6.78933 648.48 6.896V7.76C648.48 7.86667 648.443 7.95733 648.368 8.032C648.293 8.096 648.203 8.128 648.096 8.128H647.088ZM654.402 18.16C653.293 18.16 652.413 17.824 651.762 17.152C651.112 16.4693 650.754 15.5413 650.69 14.368C650.68 14.2293 650.674 14.0533 650.674 13.84C650.674 13.616 650.68 13.4347 650.69 13.296C650.733 12.5387 650.909 11.8773 651.218 11.312C651.528 10.736 651.949 10.2933 652.482 9.984C653.026 9.67467 653.661 9.52 654.386 9.52C655.197 9.52 655.874 9.69067 656.418 10.032C656.973 10.3733 657.394 10.8587 657.682 11.488C657.97 12.1173 658.114 12.8533 658.114 13.696V13.968C658.114 14.0853 658.077 14.176 658.002 14.24C657.938 14.304 657.853 14.336 657.746 14.336H652.21C652.21 14.3467 652.21 14.368 652.21 14.4C652.21 14.432 652.21 14.4587 652.21 14.48C652.232 14.9173 652.328 15.328 652.498 15.712C652.669 16.0853 652.914 16.3893 653.234 16.624C653.565 16.8587 653.949 16.976 654.386 16.976C654.77 16.976 655.09 16.9173 655.346 16.8C655.602 16.6827 655.81 16.5547 655.97 16.416C656.13 16.2667 656.237 16.1493 656.29 16.064C656.386 15.936 656.461 15.8613 656.514 15.84C656.568 15.808 656.653 15.792 656.77 15.792H657.554C657.65 15.792 657.73 15.824 657.794 15.888C657.869 15.9413 657.901 16.0213 657.89 16.128C657.88 16.288 657.794 16.4853 657.634 16.72C657.474 16.944 657.245 17.168 656.946 17.392C656.658 17.616 656.296 17.8027 655.858 17.952C655.432 18.0907 654.946 18.16 654.402 18.16ZM652.21 13.232H656.594V13.184C656.594 12.704 656.504 12.2773 656.322 11.904C656.152 11.5307 655.901 11.2373 655.57 11.024C655.24 10.8 654.845 10.688 654.386 10.688C653.928 10.688 653.533 10.8 653.202 11.024C652.882 11.2373 652.637 11.5307 652.466 11.904C652.296 12.2773 652.21 12.704 652.21 13.184V13.232ZM663.227 18.16C662.63 18.16 662.118 18.0853 661.691 17.936C661.265 17.7867 660.918 17.6053 660.651 17.392C660.385 17.1787 660.182 16.9653 660.043 16.752C659.915 16.5387 659.846 16.368 659.835 16.24C659.825 16.1227 659.862 16.032 659.947 15.968C660.033 15.904 660.118 15.872 660.203 15.872H660.923C660.977 15.872 661.019 15.8827 661.051 15.904C661.094 15.9147 661.147 15.9573 661.211 16.032C661.35 16.1813 661.505 16.3307 661.675 16.48C661.846 16.6293 662.054 16.752 662.299 16.848C662.555 16.944 662.87 16.992 663.243 16.992C663.787 16.992 664.235 16.8907 664.587 16.688C664.939 16.4747 665.115 16.1653 665.115 15.76C665.115 15.4933 665.041 15.28 664.891 15.12C664.753 14.96 664.497 14.816 664.123 14.688C663.761 14.56 663.259 14.4267 662.619 14.288C661.979 14.1387 661.473 13.9573 661.099 13.744C660.726 13.52 660.459 13.2587 660.299 12.96C660.139 12.6507 660.059 12.304 660.059 11.92C660.059 11.5253 660.177 11.1467 660.411 10.784C660.646 10.4107 660.987 10.1067 661.435 9.872C661.894 9.63733 662.465 9.52 663.147 9.52C663.702 9.52 664.177 9.58933 664.571 9.728C664.966 9.86667 665.291 10.0427 665.547 10.256C665.803 10.4587 665.995 10.6613 666.123 10.864C666.251 11.0667 666.321 11.2373 666.331 11.376C666.342 11.4827 666.31 11.5733 666.235 11.648C666.161 11.712 666.075 11.744 665.979 11.744H665.307C665.233 11.744 665.169 11.728 665.115 11.696C665.073 11.664 665.03 11.6267 664.987 11.584C664.881 11.4453 664.753 11.3067 664.603 11.168C664.465 11.0293 664.278 10.9173 664.043 10.832C663.819 10.736 663.521 10.688 663.147 10.688C662.614 10.688 662.214 10.8 661.947 11.024C661.681 11.248 661.547 11.5307 661.547 11.872C661.547 12.0747 661.606 12.256 661.723 12.416C661.841 12.576 662.065 12.72 662.395 12.848C662.726 12.976 663.217 13.1147 663.867 13.264C664.571 13.4027 665.126 13.5893 665.531 13.824C665.937 14.0587 666.225 14.3307 666.395 14.64C666.566 14.9493 666.651 15.3067 666.651 15.712C666.651 16.16 666.523 16.5707 666.267 16.944C666.011 17.3173 665.627 17.616 665.115 17.84C664.603 18.0533 663.974 18.16 663.227 18.16ZM675.386 18.16C674.852 18.16 674.367 18.0533 673.93 17.84C673.492 17.6267 673.14 17.3387 672.874 16.976C672.607 16.6133 672.474 16.2027 672.474 15.744C672.474 15.008 672.772 14.4213 673.37 13.984C673.967 13.5467 674.746 13.2587 675.706 13.12L678.09 12.784V12.32C678.09 11.808 677.94 11.408 677.642 11.12C677.354 10.832 676.879 10.688 676.218 10.688C675.748 10.688 675.364 10.784 675.066 10.976C674.767 11.168 674.559 11.4133 674.442 11.712C674.378 11.872 674.266 11.952 674.106 11.952H673.386C673.268 11.952 673.178 11.92 673.114 11.856C673.06 11.7813 673.034 11.696 673.034 11.6C673.034 11.44 673.092 11.2427 673.21 11.008C673.338 10.7733 673.53 10.544 673.786 10.32C674.042 10.096 674.367 9.90933 674.762 9.76C675.167 9.6 675.658 9.52 676.234 9.52C676.874 9.52 677.412 9.60533 677.85 9.776C678.287 9.936 678.628 10.1547 678.874 10.432C679.13 10.7093 679.311 11.024 679.418 11.376C679.535 11.728 679.594 12.0853 679.594 12.448V17.632C679.594 17.7387 679.556 17.8293 679.482 17.904C679.418 17.968 679.332 18 679.226 18H678.49C678.372 18 678.282 17.968 678.218 17.904C678.154 17.8293 678.122 17.7387 678.122 17.632V16.944C677.983 17.136 677.796 17.328 677.562 17.52C677.327 17.7013 677.034 17.856 676.682 17.984C676.33 18.1013 675.898 18.16 675.386 18.16ZM675.722 16.96C676.159 16.96 676.559 16.8693 676.922 16.688C677.284 16.496 677.567 16.2027 677.77 15.808C677.983 15.4133 678.09 14.9173 678.09 14.32V13.872L676.234 14.144C675.476 14.2507 674.906 14.432 674.522 14.688C674.138 14.9333 673.946 15.248 673.946 15.632C673.946 15.9307 674.031 16.1813 674.202 16.384C674.383 16.576 674.607 16.72 674.874 16.816C675.151 16.912 675.434 16.96 675.722 16.96ZM682.598 18C682.491 18 682.4 17.968 682.326 17.904C682.262 17.8293 682.23 17.7387 682.23 17.632V7.008C682.23 6.90133 682.262 6.816 682.326 6.752C682.4 6.67733 682.491 6.64 682.598 6.64H683.35C683.467 6.64 683.558 6.67733 683.622 6.752C683.686 6.816 683.718 6.90133 683.718 7.008V17.632C683.718 17.7387 683.686 17.8293 683.622 17.904C683.558 17.968 683.467 18 683.35 18H682.598ZM686.792 18C686.686 18 686.595 17.968 686.52 17.904C686.456 17.8293 686.424 17.7387 686.424 17.632V10.064C686.424 9.95733 686.456 9.86667 686.52 9.792C686.595 9.71733 686.686 9.68 686.792 9.68H687.528C687.635 9.68 687.726 9.71733 687.8 9.792C687.875 9.86667 687.912 9.95733 687.912 10.064V10.768C688.126 10.4053 688.419 10.1333 688.792 9.952C689.166 9.77067 689.619 9.68 690.152 9.68H690.776C690.883 9.68 690.968 9.71733 691.032 9.792C691.107 9.856 691.144 9.94133 691.144 10.048V10.704C691.144 10.8107 691.107 10.896 691.032 10.96C690.968 11.024 690.883 11.056 690.776 11.056H689.816C689.24 11.056 688.787 11.2267 688.456 11.568C688.126 11.8987 687.96 12.352 687.96 12.928V17.632C687.96 17.7387 687.923 17.8293 687.848 17.904C687.774 17.968 687.683 18 687.576 18H686.792ZM695.994 18.16C694.885 18.16 694.005 17.824 693.354 17.152C692.704 16.4693 692.346 15.5413 692.282 14.368C692.272 14.2293 692.266 14.0533 692.266 13.84C692.266 13.616 692.272 13.4347 692.282 13.296C692.325 12.5387 692.501 11.8773 692.81 11.312C693.12 10.736 693.541 10.2933 694.074 9.984C694.618 9.67467 695.253 9.52 695.978 9.52C696.789 9.52 697.466 9.69067 698.01 10.032C698.565 10.3733 698.986 10.8587 699.274 11.488C699.562 12.1173 699.706 12.8533 699.706 13.696V13.968C699.706 14.0853 699.669 14.176 699.594 14.24C699.53 14.304 699.445 14.336 699.338 14.336H693.802C693.802 14.3467 693.802 14.368 693.802 14.4C693.802 14.432 693.802 14.4587 693.802 14.48C693.824 14.9173 693.92 15.328 694.09 15.712C694.261 16.0853 694.506 16.3893 694.826 16.624C695.157 16.8587 695.541 16.976 695.978 16.976C696.362 16.976 696.682 16.9173 696.938 16.8C697.194 16.6827 697.402 16.5547 697.562 16.416C697.722 16.2667 697.829 16.1493 697.882 16.064C697.978 15.936 698.053 15.8613 698.106 15.84C698.16 15.808 698.245 15.792 698.362 15.792H699.146C699.242 15.792 699.322 15.824 699.386 15.888C699.461 15.9413 699.493 16.0213 699.482 16.128C699.472 16.288 699.386 16.4853 699.226 16.72C699.066 16.944 698.837 17.168 698.538 17.392C698.25 17.616 697.888 17.8027 697.45 17.952C697.024 18.0907 696.538 18.16 695.994 18.16ZM693.802 13.232H698.186V13.184C698.186 12.704 698.096 12.2773 697.914 11.904C697.744 11.5307 697.493 11.2373 697.162 11.024C696.832 10.8 696.437 10.688 695.978 10.688C695.52 10.688 695.125 10.8 694.794 11.024C694.474 11.2373 694.229 11.5307 694.058 11.904C693.888 12.2773 693.802 12.704 693.802 13.184V13.232ZM704.259 18.16C703.726 18.16 703.241 18.0533 702.803 17.84C702.366 17.6267 702.014 17.3387 701.747 16.976C701.481 16.6133 701.347 16.2027 701.347 15.744C701.347 15.008 701.646 14.4213 702.243 13.984C702.841 13.5467 703.619 13.2587 704.579 13.12L706.963 12.784V12.32C706.963 11.808 706.814 11.408 706.515 11.12C706.227 10.832 705.753 10.688 705.091 10.688C704.622 10.688 704.238 10.784 703.939 10.976C703.641 11.168 703.433 11.4133 703.315 11.712C703.251 11.872 703.139 11.952 702.979 11.952H702.259C702.142 11.952 702.051 11.92 701.987 11.856C701.934 11.7813 701.907 11.696 701.907 11.6C701.907 11.44 701.966 11.2427 702.083 11.008C702.211 10.7733 702.403 10.544 702.659 10.32C702.915 10.096 703.241 9.90933 703.635 9.76C704.041 9.6 704.531 9.52 705.107 9.52C705.747 9.52 706.286 9.60533 706.723 9.776C707.161 9.936 707.502 10.1547 707.747 10.432C708.003 10.7093 708.185 11.024 708.291 11.376C708.409 11.728 708.467 12.0853 708.467 12.448V17.632C708.467 17.7387 708.43 17.8293 708.355 17.904C708.291 17.968 708.206 18 708.099 18H707.363C707.246 18 707.155 17.968 707.091 17.904C707.027 17.8293 706.995 17.7387 706.995 17.632V16.944C706.857 17.136 706.67 17.328 706.435 17.52C706.201 17.7013 705.907 17.856 705.555 17.984C705.203 18.1013 704.771 18.16 704.259 18.16ZM704.595 16.96C705.033 16.96 705.433 16.8693 705.795 16.688C706.158 16.496 706.441 16.2027 706.643 15.808C706.857 15.4133 706.963 14.9173 706.963 14.32V13.872L705.107 14.144C704.35 14.2507 703.779 14.432 703.395 14.688C703.011 14.9333 702.819 15.248 702.819 15.632C702.819 15.9307 702.905 16.1813 703.075 16.384C703.257 16.576 703.481 16.72 703.747 16.816C704.025 16.912 704.307 16.96 704.595 16.96ZM714.127 18.16C713.541 18.16 713.034 18.0587 712.607 17.856C712.181 17.6427 711.829 17.36 711.551 17.008C711.285 16.6453 711.082 16.2347 710.943 15.776C710.815 15.3173 710.741 14.832 710.719 14.32C710.709 14.1493 710.703 13.9893 710.703 13.84C710.703 13.6907 710.709 13.5307 710.719 13.36C710.741 12.8587 710.815 12.3787 710.943 11.92C711.082 11.4613 711.285 11.0507 711.551 10.688C711.829 10.3253 712.181 10.0427 712.607 9.84C713.034 9.62667 713.541 9.52 714.127 9.52C714.757 9.52 715.279 9.632 715.695 9.856C716.111 10.08 716.453 10.3573 716.719 10.688V7.008C716.719 6.90133 716.751 6.816 716.815 6.752C716.89 6.67733 716.981 6.64 717.087 6.64H717.855C717.962 6.64 718.047 6.67733 718.111 6.752C718.186 6.816 718.223 6.90133 718.223 7.008V17.632C718.223 17.7387 718.186 17.8293 718.111 17.904C718.047 17.968 717.962 18 717.855 18H717.135C717.018 18 716.927 17.968 716.863 17.904C716.799 17.8293 716.767 17.7387 716.767 17.632V16.96C716.501 17.3013 716.154 17.5893 715.727 17.824C715.301 18.048 714.767 18.16 714.127 18.16ZM714.463 16.864C714.997 16.864 715.423 16.7413 715.743 16.496C716.063 16.2507 716.303 15.9413 716.463 15.568C716.623 15.184 716.709 14.7947 716.719 14.4C716.73 14.2293 716.735 14.0267 716.735 13.792C716.735 13.5467 716.73 13.3387 716.719 13.168C716.709 12.7947 716.618 12.4267 716.447 12.064C716.287 11.7013 716.042 11.4027 715.711 11.168C715.391 10.9333 714.975 10.816 714.463 10.816C713.919 10.816 713.487 10.9387 713.167 11.184C712.847 11.4187 712.618 11.7333 712.479 12.128C712.341 12.512 712.261 12.928 712.239 13.376C712.229 13.6853 712.229 13.9947 712.239 14.304C712.261 14.752 712.341 15.1733 712.479 15.568C712.618 15.952 712.847 16.2667 713.167 16.512C713.487 16.7467 713.919 16.864 714.463 16.864ZM722.379 21.04C722.294 21.04 722.219 21.008 722.155 20.944C722.091 20.88 722.059 20.8053 722.059 20.72C722.059 20.6773 722.064 20.6347 722.075 20.592C722.086 20.5493 722.107 20.496 722.139 20.432L723.371 17.504L720.315 10.288C720.262 10.16 720.235 10.0693 720.235 10.016C720.235 9.92 720.267 9.84 720.331 9.776C720.395 9.712 720.475 9.68 720.571 9.68H721.355C721.472 9.68 721.558 9.70667 721.611 9.76C721.675 9.81333 721.718 9.87733 721.739 9.952L724.171 15.776L726.667 9.952C726.699 9.87733 726.742 9.81333 726.795 9.76C726.859 9.70667 726.95 9.68 727.067 9.68H727.819C727.915 9.68 727.995 9.712 728.059 9.776C728.123 9.84 728.155 9.91467 728.155 10C728.155 10.0533 728.128 10.1493 728.075 10.288L723.531 20.768C723.499 20.8427 723.451 20.9067 723.387 20.96C723.334 21.0133 723.248 21.04 723.131 21.04H722.379ZM737.299 21.52C736.574 21.52 735.976 21.424 735.507 21.232C735.048 21.04 734.686 20.8053 734.419 20.528C734.163 20.2613 733.976 19.9893 733.859 19.712C733.752 19.4453 733.694 19.232 733.683 19.072C733.672 18.9653 733.704 18.8747 733.779 18.8C733.864 18.7253 733.955 18.688 734.051 18.688H734.819C734.915 18.688 734.995 18.7093 735.059 18.752C735.123 18.7947 735.176 18.8853 735.219 19.024C735.283 19.184 735.379 19.36 735.507 19.552C735.635 19.7547 735.832 19.9253 736.099 20.064C736.366 20.2133 736.739 20.288 737.219 20.288C737.72 20.288 738.142 20.2187 738.483 20.08C738.824 19.9413 739.08 19.7067 739.251 19.376C739.432 19.0453 739.523 18.5867 739.523 18V16.912C739.267 17.2427 738.931 17.52 738.515 17.744C738.099 17.9573 737.576 18.064 736.947 18.064C736.35 18.064 735.838 17.9627 735.411 17.76C734.984 17.5467 734.632 17.264 734.355 16.912C734.088 16.5493 733.886 16.1387 733.747 15.68C733.619 15.2213 733.544 14.7413 733.523 14.24C733.512 13.9413 733.512 13.648 733.523 13.36C733.544 12.8587 733.619 12.3787 733.747 11.92C733.886 11.4613 734.088 11.0507 734.355 10.688C734.632 10.3253 734.984 10.0427 735.411 9.84C735.838 9.62667 736.35 9.52 736.947 9.52C737.587 9.52 738.115 9.63733 738.531 9.872C738.958 10.1067 739.304 10.4 739.571 10.752V10.064C739.571 9.95733 739.603 9.86667 739.667 9.792C739.742 9.71733 739.832 9.68 739.939 9.68H740.675C740.782 9.68 740.872 9.71733 740.947 9.792C741.022 9.86667 741.059 9.95733 741.059 10.064V17.824C741.059 18.5387 740.936 19.1733 740.691 19.728C740.456 20.2827 740.062 20.72 739.507 21.04C738.963 21.36 738.227 21.52 737.299 21.52ZM737.267 16.784C737.8 16.784 738.227 16.6613 738.547 16.416C738.878 16.1707 739.118 15.8613 739.267 15.488C739.427 15.1147 739.512 14.736 739.523 14.352C739.534 14.2027 739.539 14.0213 739.539 13.808C739.539 13.584 739.534 13.3973 739.523 13.248C739.512 12.864 739.427 12.4853 739.267 12.112C739.118 11.7387 738.878 11.4293 738.547 11.184C738.227 10.9387 737.8 10.816 737.267 10.816C736.734 10.816 736.307 10.9387 735.987 11.184C735.667 11.4187 735.438 11.7333 735.299 12.128C735.16 12.512 735.08 12.928 735.059 13.376C735.048 13.6533 735.048 13.936 735.059 14.224C735.08 14.672 735.16 15.0933 735.299 15.488C735.438 15.872 735.667 16.1867 735.987 16.432C736.307 16.6667 736.734 16.784 737.267 16.784ZM744.126 18C744.019 18 743.929 17.968 743.854 17.904C743.79 17.8293 743.758 17.7387 743.758 17.632V10.064C743.758 9.95733 743.79 9.86667 743.854 9.792C743.929 9.71733 744.019 9.68 744.126 9.68H744.862C744.969 9.68 745.059 9.71733 745.134 9.792C745.209 9.86667 745.246 9.95733 745.246 10.064V10.768C745.459 10.4053 745.753 10.1333 746.126 9.952C746.499 9.77067 746.953 9.68 747.486 9.68H748.11C748.217 9.68 748.302 9.71733 748.366 9.792C748.441 9.856 748.478 9.94133 748.478 10.048V10.704C748.478 10.8107 748.441 10.896 748.366 10.96C748.302 11.024 748.217 11.056 748.11 11.056H747.15C746.574 11.056 746.121 11.2267 745.79 11.568C745.459 11.8987 745.294 12.352 745.294 12.928V17.632C745.294 17.7387 745.257 17.8293 745.182 17.904C745.107 17.968 745.017 18 744.91 18H744.126ZM753.408 18.16C752.597 18.16 751.92 18.0053 751.376 17.696C750.832 17.3867 750.416 16.96 750.128 16.416C749.84 15.8613 749.68 15.232 749.648 14.528C749.637 14.3467 749.632 14.1173 749.632 13.84C749.632 13.552 749.637 13.3227 749.648 13.152C749.68 12.4373 749.84 11.808 750.128 11.264C750.427 10.72 750.848 10.2933 751.392 9.984C751.936 9.67467 752.608 9.52 753.408 9.52C754.208 9.52 754.88 9.67467 755.424 9.984C755.968 10.2933 756.384 10.72 756.672 11.264C756.971 11.808 757.136 12.4373 757.168 13.152C757.179 13.3227 757.184 13.552 757.184 13.84C757.184 14.1173 757.179 14.3467 757.168 14.528C757.136 15.232 756.976 15.8613 756.688 16.416C756.4 16.96 755.984 17.3867 755.44 17.696C754.896 18.0053 754.219 18.16 753.408 18.16ZM753.408 16.928C754.069 16.928 754.597 16.72 754.992 16.304C755.387 15.8773 755.6 15.2587 755.632 14.448C755.643 14.288 755.648 14.0853 755.648 13.84C755.648 13.5947 755.643 13.392 755.632 13.232C755.6 12.4213 755.387 11.808 754.992 11.392C754.597 10.9653 754.069 10.752 753.408 10.752C752.747 10.752 752.213 10.9653 751.808 11.392C751.413 11.808 751.205 12.4213 751.184 13.232C751.173 13.392 751.168 13.5947 751.168 13.84C751.168 14.0853 751.173 14.288 751.184 14.448C751.205 15.2587 751.413 15.8773 751.808 16.304C752.213 16.72 752.747 16.928 753.408 16.928ZM761.497 18C761.358 18 761.251 17.968 761.177 17.904C761.102 17.8293 761.038 17.728 760.985 17.6L758.713 10.176C758.691 10.1227 758.681 10.0693 758.681 10.016C758.681 9.92 758.713 9.84 758.777 9.776C758.851 9.712 758.931 9.68 759.017 9.68H759.721C759.838 9.68 759.929 9.712 759.993 9.776C760.057 9.84 760.099 9.89867 760.121 9.952L761.897 15.984L763.801 10.016C763.822 9.94133 763.865 9.86667 763.929 9.792C764.003 9.71733 764.11 9.68 764.249 9.68H764.793C764.931 9.68 765.038 9.71733 765.113 9.792C765.187 9.86667 765.23 9.94133 765.241 10.016L767.145 15.984L768.921 9.952C768.931 9.89867 768.969 9.84 769.033 9.776C769.097 9.712 769.187 9.68 769.305 9.68H770.025C770.11 9.68 770.185 9.712 770.249 9.776C770.313 9.84 770.345 9.92 770.345 10.016C770.345 10.0693 770.334 10.1227 770.313 10.176L768.057 17.6C768.014 17.728 767.955 17.8293 767.881 17.904C767.806 17.968 767.689 18 767.529 18H766.905C766.766 18 766.649 17.968 766.553 17.904C766.467 17.8293 766.409 17.728 766.377 17.6L764.521 11.872L762.665 17.6C762.622 17.728 762.558 17.8293 762.473 17.904C762.387 17.968 762.27 18 762.121 18H761.497ZM772.805 18C772.698 18 772.607 17.968 772.533 17.904C772.469 17.8293 772.437 17.7387 772.437 17.632V10.048C772.437 9.94133 772.469 9.856 772.533 9.792C772.607 9.71733 772.698 9.68 772.805 9.68H773.573C773.679 9.68 773.765 9.71733 773.829 9.792C773.903 9.856 773.941 9.94133 773.941 10.048V17.632C773.941 17.7387 773.903 17.8293 773.829 17.904C773.765 17.968 773.679 18 773.573 18H772.805ZM772.677 8.128C772.57 8.128 772.479 8.096 772.405 8.032C772.341 7.95733 772.309 7.86667 772.309 7.76V6.896C772.309 6.78933 772.341 6.69867 772.405 6.624C772.479 6.54933 772.57 6.512 772.677 6.512H773.685C773.791 6.512 773.882 6.54933 773.957 6.624C774.031 6.69867 774.069 6.78933 774.069 6.896V7.76C774.069 7.86667 774.031 7.95733 773.957 8.032C773.882 8.096 773.791 8.128 773.685 8.128H772.677ZM777.14 18C777.034 18 776.943 17.968 776.868 17.904C776.804 17.8293 776.772 17.7387 776.772 17.632V10.048C776.772 9.94133 776.804 9.856 776.868 9.792C776.943 9.71733 777.034 9.68 777.14 9.68H777.892C777.999 9.68 778.084 9.71733 778.148 9.792C778.223 9.856 778.26 9.94133 778.26 10.048V10.752C778.538 10.3893 778.884 10.096 779.3 9.872C779.727 9.63733 780.271 9.52 780.932 9.52C781.626 9.52 782.212 9.67467 782.692 9.984C783.183 10.2827 783.551 10.704 783.796 11.248C784.052 11.7813 784.18 12.4053 784.18 13.12V17.632C784.18 17.7387 784.143 17.8293 784.068 17.904C784.004 17.968 783.919 18 783.812 18H783.012C782.906 18 782.815 17.968 782.74 17.904C782.676 17.8293 782.644 17.7387 782.644 17.632V13.2C782.644 12.4533 782.463 11.872 782.1 11.456C781.738 11.0293 781.204 10.816 780.5 10.816C779.839 10.816 779.306 11.0293 778.9 11.456C778.506 11.872 778.308 12.4533 778.308 13.2V17.632C778.308 17.7387 778.271 17.8293 778.196 17.904C778.132 17.968 778.047 18 777.94 18H777.14ZM790.204 21.52C789.478 21.52 788.881 21.424 788.412 21.232C787.953 21.04 787.59 20.8053 787.324 20.528C787.068 20.2613 786.881 19.9893 786.764 19.712C786.657 19.4453 786.598 19.232 786.588 19.072C786.577 18.9653 786.609 18.8747 786.684 18.8C786.769 18.7253 786.86 18.688 786.956 18.688H787.724C787.82 18.688 787.9 18.7093 787.964 18.752C788.028 18.7947 788.081 18.8853 788.124 19.024C788.188 19.184 788.284 19.36 788.412 19.552C788.54 19.7547 788.737 19.9253 789.004 20.064C789.27 20.2133 789.644 20.288 790.124 20.288C790.625 20.288 791.046 20.2187 791.388 20.08C791.729 19.9413 791.985 19.7067 792.156 19.376C792.337 19.0453 792.428 18.5867 792.428 18V16.912C792.172 17.2427 791.836 17.52 791.42 17.744C791.004 17.9573 790.481 18.064 789.852 18.064C789.254 18.064 788.742 17.9627 788.316 17.76C787.889 17.5467 787.537 17.264 787.26 16.912C786.993 16.5493 786.79 16.1387 786.652 15.68C786.524 15.2213 786.449 14.7413 786.428 14.24C786.417 13.9413 786.417 13.648 786.428 13.36C786.449 12.8587 786.524 12.3787 786.652 11.92C786.79 11.4613 786.993 11.0507 787.26 10.688C787.537 10.3253 787.889 10.0427 788.316 9.84C788.742 9.62667 789.254 9.52 789.852 9.52C790.492 9.52 791.02 9.63733 791.436 9.872C791.862 10.1067 792.209 10.4 792.476 10.752V10.064C792.476 9.95733 792.508 9.86667 792.572 9.792C792.646 9.71733 792.737 9.68 792.844 9.68H793.58C793.686 9.68 793.777 9.71733 793.852 9.792C793.926 9.86667 793.964 9.95733 793.964 10.064V17.824C793.964 18.5387 793.841 19.1733 793.596 19.728C793.361 20.2827 792.966 20.72 792.412 21.04C791.868 21.36 791.132 21.52 790.204 21.52ZM790.172 16.784C790.705 16.784 791.132 16.6613 791.452 16.416C791.782 16.1707 792.022 15.8613 792.172 15.488C792.332 15.1147 792.417 14.736 792.428 14.352C792.438 14.2027 792.444 14.0213 792.444 13.808C792.444 13.584 792.438 13.3973 792.428 13.248C792.417 12.864 792.332 12.4853 792.172 12.112C792.022 11.7387 791.782 11.4293 791.452 11.184C791.132 10.9387 790.705 10.816 790.172 10.816C789.638 10.816 789.212 10.9387 788.892 11.184C788.572 11.4187 788.342 11.7333 788.204 12.128C788.065 12.512 787.985 12.928 787.964 13.376C787.953 13.6533 787.953 13.936 787.964 14.224C787.985 14.672 788.065 15.0933 788.204 15.488C788.342 15.872 788.572 16.1867 788.892 16.432C789.212 16.6667 789.638 16.784 790.172 16.784Z" fill="#667085"/>
<path d="M45.2775 79.3182C46.0998 76.2499 49.2537 73.096 52.322 72.2737L71.4509 67.1474C74.5192 66.3251 76.3399 68.1459 75.5177 71.2141L70.3913 90.3431C69.569 93.4114 66.4151 96.5653 63.3469 97.3875L44.2179 102.514C41.1496 103.336 39.3289 101.515 40.1511 98.4471L45.2775 79.3182Z" fill="#9E77ED"/>
<path d="M37.6088 71.6493C38.4311 68.5811 41.585 65.4272 44.6533 64.6049L63.7823 59.4785C66.8505 58.6563 68.6713 60.477 67.849 63.5453L62.7227 82.6743C61.9004 85.7425 58.7465 88.8964 55.6782 89.7187L36.5492 94.8451C33.481 95.6673 31.6602 93.8466 32.4825 90.7783L37.6088 71.6493Z" fill="#6941C6"/>
<path d="M93.292 88.424H99.872V91H90.1V71.54H93.292V88.424Z" fill="#101828"/>
<path d="M101.477 83.216C101.477 81.6667 101.795 80.2947 102.429 79.1C103.083 77.9054 103.96 76.9814 105.061 76.328C106.181 75.656 107.413 75.32 108.757 75.32C109.971 75.32 111.025 75.5627 111.921 76.048C112.836 76.5147 113.564 77.1027 114.105 77.812V75.572H117.325V91H114.105V88.704C113.564 89.432 112.827 90.0387 111.893 90.524C110.96 91.0094 109.896 91.252 108.701 91.252C107.376 91.252 106.163 90.916 105.061 90.244C103.96 89.5534 103.083 88.6014 102.429 87.388C101.795 86.156 101.477 84.7654 101.477 83.216ZM114.105 83.272C114.105 82.208 113.881 81.284 113.433 80.5C113.004 79.716 112.435 79.1187 111.725 78.708C111.016 78.2974 110.251 78.092 109.429 78.092C108.608 78.092 107.843 78.2974 107.133 78.708C106.424 79.1 105.845 79.688 105.397 80.472C104.968 81.2374 104.753 82.152 104.753 83.216C104.753 84.28 104.968 85.2134 105.397 86.016C105.845 86.8187 106.424 87.4347 107.133 87.864C107.861 88.2747 108.627 88.48 109.429 88.48C110.251 88.48 111.016 88.2747 111.725 87.864C112.435 87.4534 113.004 86.856 113.433 86.072C113.881 85.2694 114.105 84.336 114.105 83.272Z" fill="#101828"/>
<path d="M135.406 75.572L125.942 98.252H122.638L125.774 90.748L119.698 75.572H123.254L127.594 87.332L132.102 75.572H135.406Z" fill="#101828"/>
<path d="M151.955 82.908C151.955 83.4867 151.918 84.0094 151.843 84.476H140.055C140.148 85.708 140.606 86.6974 141.427 87.444C142.248 88.1907 143.256 88.564 144.451 88.564C146.168 88.564 147.382 87.8454 148.091 86.408H151.535C151.068 87.8267 150.219 88.9934 148.987 89.908C147.774 90.804 146.262 91.252 144.451 91.252C142.976 91.252 141.651 90.9254 140.475 90.272C139.318 89.6 138.403 88.6667 137.731 87.472C137.078 86.2587 136.751 84.8587 136.751 83.272C136.751 81.6854 137.068 80.2947 137.703 79.1C138.356 77.8867 139.262 76.9534 140.419 76.3C141.595 75.6467 142.939 75.32 144.451 75.32C145.907 75.32 147.204 75.6374 148.343 76.272C149.482 76.9067 150.368 77.8027 151.003 78.96C151.638 80.0987 151.955 81.4147 151.955 82.908ZM148.623 81.9C148.604 80.724 148.184 79.7814 147.363 79.072C146.542 78.3627 145.524 78.008 144.311 78.008C143.21 78.008 142.267 78.3627 141.483 79.072C140.699 79.7627 140.232 80.7054 140.083 81.9H148.623Z" fill="#101828"/>
<path d="M158.288 77.812C158.755 77.028 159.371 76.4214 160.136 75.992C160.92 75.544 161.844 75.32 162.908 75.32V78.624H162.096C160.845 78.624 159.893 78.9414 159.24 79.576C158.605 80.2107 158.288 81.312 158.288 82.88V91H155.096V75.572H158.288V77.812Z" fill="#101828"/>
<path d="M171.442 91.252C170.229 91.252 169.137 91.0374 168.166 90.608C167.214 90.16 166.458 89.5627 165.898 88.816C165.338 88.0507 165.04 87.2014 165.002 86.268H168.306C168.362 86.9214 168.67 87.472 169.23 87.92C169.809 88.3494 170.528 88.564 171.386 88.564C172.282 88.564 172.973 88.396 173.458 88.06C173.962 87.7054 174.214 87.2574 174.214 86.716C174.214 86.1374 173.934 85.708 173.374 85.428C172.833 85.148 171.965 84.84 170.77 84.504C169.613 84.1867 168.67 83.8787 167.942 83.58C167.214 83.2814 166.58 82.824 166.038 82.208C165.516 81.592 165.254 80.78 165.254 79.772C165.254 78.9507 165.497 78.204 165.982 77.532C166.468 76.8414 167.158 76.3 168.054 75.908C168.969 75.516 170.014 75.32 171.19 75.32C172.945 75.32 174.354 75.768 175.418 76.664C176.501 77.5414 177.08 78.7454 177.154 80.276H173.962C173.906 79.5854 173.626 79.0347 173.122 78.624C172.618 78.2134 171.937 78.008 171.078 78.008C170.238 78.008 169.594 78.1667 169.146 78.484C168.698 78.8014 168.474 79.2214 168.474 79.744C168.474 80.1547 168.624 80.5 168.922 80.78C169.221 81.06 169.585 81.284 170.014 81.452C170.444 81.6014 171.078 81.7974 171.918 82.04C173.038 82.3387 173.953 82.6467 174.662 82.964C175.39 83.2627 176.016 83.7107 176.538 84.308C177.061 84.9054 177.332 85.6987 177.35 86.688C177.35 87.5654 177.108 88.3494 176.622 89.04C176.137 89.7307 175.446 90.272 174.55 90.664C173.673 91.056 172.637 91.252 171.442 91.252Z" fill="#101828"/>
<rect x="270.75" y="76.2" width="9.59998" height="9.59999" fill="#039855"/>
<rect x="299.55" y="85.8" width="9.6" height="9.59999" transform="rotate(180 299.55 85.8)" fill="#027A48"/>
<path d="M280.35 76.2L289.95 66.6V76.2L280.35 85.7999V76.2Z" fill="#A6F4C5"/>
<path d="M289.95 85.7999L280.35 95.3999L280.35 85.7999L289.95 76.1999L289.95 85.7999Z" fill="#6CE9A6"/>
<path d="M270.75 76.2L289.95 57V66.6L280.35 76.2H270.75Z" fill="#32D583"/>
<path d="M299.55 85.8L280.35 105L280.35 95.4L289.95 85.8L299.55 85.8Z" fill="#12B76A"/>
<path d="M320.458 91.28C318.946 91.28 317.481 91.0654 316.062 90.636C314.662 90.2067 313.551 89.6374 312.73 88.928L313.99 86.1C314.793 86.7347 315.773 87.2574 316.93 87.668C318.106 88.06 319.282 88.256 320.458 88.256C321.914 88.256 322.997 88.0227 323.706 87.556C324.434 87.0894 324.798 86.4734 324.798 85.708C324.798 85.148 324.593 84.6907 324.182 84.336C323.79 83.9627 323.286 83.6734 322.67 83.468C322.054 83.2627 321.214 83.0294 320.15 82.768C318.657 82.4134 317.443 82.0587 316.51 81.704C315.595 81.3494 314.802 80.7987 314.13 80.052C313.477 79.2867 313.15 78.26 313.15 76.972C313.15 75.8894 313.439 74.9094 314.018 74.032C314.615 73.136 315.502 72.4267 316.678 71.904C317.873 71.3814 319.329 71.12 321.046 71.12C322.241 71.12 323.417 71.2694 324.574 71.568C325.731 71.8667 326.73 72.296 327.57 72.856L326.422 75.684C325.563 75.18 324.667 74.7974 323.734 74.536C322.801 74.2747 321.895 74.144 321.018 74.144C319.581 74.144 318.507 74.3867 317.798 74.872C317.107 75.3574 316.762 76.0014 316.762 76.804C316.762 77.364 316.958 77.8214 317.35 78.176C317.761 78.5307 318.274 78.8107 318.89 79.016C319.506 79.2214 320.346 79.4547 321.41 79.716C322.866 80.052 324.061 80.4067 324.994 80.78C325.927 81.1347 326.721 81.6854 327.374 82.432C328.046 83.1787 328.382 84.1867 328.382 85.456C328.382 86.5387 328.083 87.5187 327.486 88.396C326.907 89.2734 326.021 89.9734 324.826 90.496C323.631 91.0187 322.175 91.28 320.458 91.28Z" fill="#101828"/>
<path d="M331.655 76.048H335.155V91H331.655V76.048ZM333.419 73.584C332.785 73.584 332.253 73.388 331.823 72.996C331.394 72.5854 331.179 72.0814 331.179 71.484C331.179 70.8867 331.394 70.392 331.823 70C332.253 69.5894 332.785 69.384 333.419 69.384C334.054 69.384 334.586 69.58 335.015 69.972C335.445 70.3454 335.659 70.8214 335.659 71.4C335.659 72.016 335.445 72.5387 335.015 72.968C334.605 73.3787 334.073 73.584 333.419 73.584Z" fill="#101828"/>
<path d="M344.369 91.196C343.156 91.196 341.97 91.0374 340.813 90.72C339.656 90.4027 338.732 90.0014 338.041 89.516L339.385 86.856C340.057 87.304 340.86 87.668 341.793 87.948C342.745 88.2094 343.678 88.34 344.593 88.34C346.684 88.34 347.729 87.7894 347.729 86.688C347.729 86.1654 347.458 85.8014 346.917 85.596C346.394 85.3907 345.545 85.1947 344.369 85.008C343.137 84.8214 342.129 84.6067 341.345 84.364C340.58 84.1214 339.908 83.7014 339.329 83.104C338.769 82.488 338.489 81.6387 338.489 80.556C338.489 79.1374 339.077 78.008 340.253 77.168C341.448 76.3094 343.053 75.88 345.069 75.88C346.096 75.88 347.122 76.0014 348.149 76.244C349.176 76.468 350.016 76.776 350.669 77.168L349.325 79.828C348.056 79.0814 346.628 78.708 345.041 78.708C344.014 78.708 343.23 78.8667 342.689 79.184C342.166 79.4827 341.905 79.884 341.905 80.388C341.905 80.948 342.185 81.3494 342.745 81.592C343.324 81.816 344.21 82.0307 345.405 82.236C346.6 82.4227 347.58 82.6374 348.345 82.88C349.11 83.1227 349.764 83.5334 350.305 84.112C350.865 84.6907 351.145 85.512 351.145 86.576C351.145 87.976 350.538 89.096 349.325 89.936C348.112 90.776 346.46 91.196 344.369 91.196Z" fill="#101828"/>
<path d="M367.886 76.048L360.886 92.204C360.232 93.828 359.439 94.9667 358.506 95.62C357.572 96.292 356.443 96.628 355.118 96.628C354.371 96.628 353.634 96.5067 352.906 96.264C352.178 96.0214 351.58 95.6854 351.114 95.256L352.514 92.68C352.85 92.9974 353.242 93.2494 353.69 93.436C354.156 93.6227 354.623 93.716 355.09 93.716C355.706 93.716 356.21 93.5574 356.602 93.24C357.012 92.9227 357.386 92.3907 357.722 91.644L357.974 91.056L351.45 76.048H355.09L359.794 87.108L364.526 76.048H367.886Z" fill="#101828"/>
<path d="M378.361 75.88C379.817 75.88 381.115 76.1974 382.253 76.832C383.411 77.4667 384.316 78.3627 384.969 79.52C385.623 80.6774 385.949 82.012 385.949 83.524C385.949 85.036 385.623 86.38 384.969 87.556C384.316 88.7134 383.411 89.6094 382.253 90.244C381.115 90.8787 379.817 91.196 378.361 91.196C376.345 91.196 374.749 90.524 373.573 89.18V96.432H370.073V76.048H373.405V78.008C373.984 77.2987 374.693 76.7667 375.533 76.412C376.392 76.0574 377.335 75.88 378.361 75.88ZM377.969 88.2C379.257 88.2 380.312 87.7707 381.133 86.912C381.973 86.0534 382.393 84.924 382.393 83.524C382.393 82.124 381.973 80.9947 381.133 80.136C380.312 79.2774 379.257 78.848 377.969 78.848C377.129 78.848 376.373 79.044 375.701 79.436C375.029 79.8094 374.497 80.3507 374.105 81.06C373.713 81.7694 373.517 82.5907 373.517 83.524C373.517 84.4574 373.713 85.2787 374.105 85.988C374.497 86.6974 375.029 87.248 375.701 87.64C376.373 88.0134 377.129 88.2 377.969 88.2Z" fill="#101828"/>
<path d="M397.753 75.88C399.638 75.88 401.15 76.4307 402.289 77.532C403.427 78.6334 403.997 80.2667 403.997 82.432V91H400.497V82.88C400.497 81.5734 400.189 80.5934 399.573 79.94C398.957 79.268 398.079 78.932 396.941 78.932C395.653 78.932 394.635 79.324 393.889 80.108C393.142 80.8734 392.769 81.984 392.769 83.44V91H389.269V70.224H392.769V77.784C393.347 77.168 394.057 76.7014 394.897 76.384C395.755 76.048 396.707 75.88 397.753 75.88Z" fill="#101828"/>
<path d="M422.913 76.048V91H419.581V89.096C419.021 89.768 418.321 90.2907 417.481 90.664C416.641 91.0187 415.735 91.196 414.765 91.196C412.767 91.196 411.19 90.6454 410.033 89.544C408.894 88.424 408.325 86.772 408.325 84.588V76.048H411.825V84.112C411.825 85.456 412.123 86.464 412.721 87.136C413.337 87.7894 414.205 88.116 415.325 88.116C416.575 88.116 417.565 87.7334 418.293 86.968C419.039 86.184 419.413 85.064 419.413 83.608V76.048H422.913Z" fill="#101828"/>
<path d="M432.115 91.196C430.902 91.196 429.716 91.0374 428.559 90.72C427.402 90.4027 426.478 90.0014 425.787 89.516L427.131 86.856C427.803 87.304 428.606 87.668 429.539 87.948C430.491 88.2094 431.424 88.34 432.339 88.34C434.43 88.34 435.475 87.7894 435.475 86.688C435.475 86.1654 435.204 85.8014 434.663 85.596C434.14 85.3907 433.291 85.1947 432.115 85.008C430.883 84.8214 429.875 84.6067 429.091 84.364C428.326 84.1214 427.654 83.7014 427.075 83.104C426.515 82.488 426.235 81.6387 426.235 80.556C426.235 79.1374 426.823 78.008 427.999 77.168C429.194 76.3094 430.799 75.88 432.815 75.88C433.842 75.88 434.868 76.0014 435.895 76.244C436.922 76.468 437.762 76.776 438.415 77.168L437.071 79.828C435.802 79.0814 434.374 78.708 432.787 78.708C431.76 78.708 430.976 78.8667 430.435 79.184C429.912 79.4827 429.651 79.884 429.651 80.388C429.651 80.948 429.931 81.3494 430.491 81.592C431.07 81.816 431.956 82.0307 433.151 82.236C434.346 82.4227 435.326 82.6374 436.091 82.88C436.856 83.1227 437.51 83.5334 438.051 84.112C438.611 84.6907 438.891 85.512 438.891 86.576C438.891 87.976 438.284 89.096 437.071 89.936C435.858 90.776 434.206 91.196 432.115 91.196Z" fill="#101828"/>
<path d="M548.214 90.4286C556.893 90.4286 563.929 83.393 563.929 74.7143C563.929 73.7307 563.838 72.7682 563.665 71.8347C562.732 71.6618 561.769 71.5714 560.786 71.5714C552.107 71.5714 545.071 78.6069 545.071 87.2857C545.071 88.2693 545.162 89.2318 545.335 90.1653C546.268 90.3382 547.231 90.4286 548.214 90.4286Z" fill="#175CD3"/>
<path fill-rule="evenodd" clip-rule="evenodd" d="M545.335 90.1653C538.031 88.8127 532.5 82.4095 532.5 74.7143C532.5 66.0355 539.536 59 548.214 59C555.909 59 562.313 64.5312 563.665 71.8347C562.732 71.6618 561.769 71.5714 560.786 71.5714C552.107 71.5714 545.071 78.607 545.071 87.2857C545.071 88.2693 545.162 89.2318 545.335 90.1653Z" fill="#1570EF"/>
<path fill-rule="evenodd" clip-rule="evenodd" d="M548.214 90.4285C556.893 90.4285 563.928 83.393 563.928 74.7142C563.928 73.7306 563.838 72.7681 563.665 71.8346C570.969 73.1872 576.5 79.5905 576.5 87.2856C576.5 95.9644 569.464 103 560.786 103C553.09 103 546.687 97.4687 545.335 90.1652C546.268 90.3381 547.231 90.4285 548.214 90.4285Z" fill="#2E90FA"/>
<path d="M606.728 85.904C606.168 87.7147 605.188 89.068 603.788 89.964C602.388 90.8414 600.755 91.28 598.888 91.28C597.059 91.28 595.472 90.8974 594.128 90.132C592.803 89.3667 591.776 88.2747 591.048 86.856C590.339 85.4374 589.984 83.7387 589.984 81.76C589.984 79.7814 590.348 78.0827 591.076 76.664C591.804 75.2454 592.831 74.1534 594.156 73.388C595.481 72.6227 597.04 72.24 598.832 72.24C600.717 72.24 602.332 72.6414 603.676 73.444C605.039 74.228 605.972 75.4227 606.476 77.028L602.976 78.512C602.659 77.392 602.173 76.5987 601.52 76.132C600.867 75.6467 600.027 75.404 599 75.404C597.469 75.404 596.247 75.9547 595.332 77.056C594.436 78.1387 593.988 79.7067 593.988 81.76C593.988 83.7947 594.417 85.3627 595.276 86.464C596.135 87.5654 597.376 88.116 599 88.116C600.008 88.116 600.876 87.8454 601.604 87.304C602.351 86.7627 602.873 85.9414 603.172 84.84L606.728 85.904Z" fill="#101828"/>
<path d="M611.561 74.984C609.975 74.984 609.181 74.3027 609.181 72.94C609.181 71.5587 609.975 70.868 611.561 70.868C613.148 70.868 613.941 71.5587 613.941 72.94C613.941 74.3027 613.148 74.984 611.561 74.984ZM613.465 77V91H609.629V77H613.465Z" fill="#101828"/>
<path d="M617.532 91V77H620.864L621.116 79.744C621.47 78.792 622.002 78.0547 622.712 77.532C623.44 76.9907 624.354 76.72 625.456 76.72C626.109 76.72 626.613 76.8227 626.968 77.028L626.52 80.248C626.333 80.192 626.1 80.1454 625.82 80.108C625.558 80.052 625.213 80.024 624.784 80.024C624.205 80.024 623.654 80.164 623.132 80.444C622.628 80.7054 622.208 81.116 621.872 81.676C621.536 82.2174 621.368 82.908 621.368 83.748V91H617.532Z" fill="#101828"/>
<path d="M635.427 76.72C637.293 76.72 638.74 77.1214 639.767 77.924C640.812 78.7267 641.503 79.6974 641.839 80.836L638.255 82.124C637.881 80.4254 636.957 79.576 635.483 79.576C634.419 79.576 633.588 79.9494 632.991 80.696C632.412 81.4427 632.123 82.5534 632.123 84.028C632.123 85.5214 632.421 86.632 633.019 87.36C633.635 88.0694 634.465 88.424 635.511 88.424C637.135 88.424 638.105 87.5934 638.423 85.932L641.895 87.052C641.577 88.3027 640.868 89.32 639.767 90.104C638.684 90.888 637.275 91.28 635.539 91.28C634.083 91.28 632.804 90.9907 631.703 90.412C630.62 89.8334 629.78 89.0027 629.183 87.92C628.585 86.8374 628.287 85.5307 628.287 84C628.287 82.4694 628.585 81.1627 629.183 80.08C629.799 78.9974 630.639 78.1667 631.703 77.588C632.785 77.0094 634.027 76.72 635.427 76.72Z" fill="#101828"/>
<path d="M651.259 76.72C652.659 76.72 653.901 77.0094 654.983 77.588C656.066 78.1667 656.906 78.9974 657.503 80.08C658.119 81.1627 658.427 82.4694 658.427 84C658.427 85.5307 658.119 86.8374 657.503 87.92C656.906 89.0027 656.066 89.8334 654.983 90.412C653.901 90.9907 652.659 91.28 651.259 91.28C649.841 91.28 648.59 90.9907 647.507 90.412C646.443 89.8334 645.603 89.0027 644.987 87.92C644.39 86.8374 644.091 85.5307 644.091 84C644.091 82.4694 644.39 81.1627 644.987 80.08C645.603 78.9974 646.443 78.1667 647.507 77.588C648.59 77.0094 649.841 76.72 651.259 76.72ZM651.259 79.576C650.214 79.576 649.393 79.9494 648.795 80.696C648.217 81.424 647.927 82.5254 647.927 84C647.927 85.4747 648.217 86.5854 648.795 87.332C649.393 88.06 650.214 88.424 651.259 88.424C652.286 88.424 653.089 88.06 653.667 87.332C654.265 86.5854 654.563 85.4747 654.563 84C654.563 82.5254 654.265 81.424 653.667 80.696C653.089 79.9494 652.286 79.576 651.259 79.576Z" fill="#101828"/>
<path d="M668.021 76.72C669.421 76.72 670.662 77.0094 671.745 77.588C672.828 78.1667 673.668 78.9974 674.265 80.08C674.881 81.1627 675.189 82.4694 675.189 84C675.189 85.5307 674.881 86.8374 674.265 87.92C673.668 89.0027 672.828 89.8334 671.745 90.412C670.662 90.9907 669.421 91.28 668.021 91.28C666.602 91.28 665.352 90.9907 664.269 90.412C663.205 89.8334 662.365 89.0027 661.749 87.92C661.152 86.8374 660.853 85.5307 660.853 84C660.853 82.4694 661.152 81.1627 661.749 80.08C662.365 78.9974 663.205 78.1667 664.269 77.588C665.352 77.0094 666.602 76.72 668.021 76.72ZM668.021 79.576C666.976 79.576 666.154 79.9494 665.557 80.696C664.978 81.424 664.689 82.5254 664.689 84C664.689 85.4747 664.978 86.5854 665.557 87.332C666.154 88.06 666.976 88.424 668.021 88.424C669.048 88.424 669.85 88.06 670.429 87.332C671.026 86.5854 671.325 85.4747 671.325 84C671.325 82.5254 671.026 81.424 670.429 80.696C669.85 79.9494 669.048 79.576 668.021 79.576Z" fill="#101828"/>
<path d="M682.179 70.868V86.688C682.179 87.3414 682.291 87.7987 682.515 88.06C682.739 88.3214 683.112 88.452 683.635 88.452C683.952 88.452 684.213 88.4334 684.419 88.396C684.624 88.3587 684.885 88.284 685.203 88.172L684.867 90.692C684.549 90.8787 684.148 91.0187 683.663 91.112C683.196 91.224 682.729 91.28 682.263 91.28C680.9 91.28 679.901 90.9534 679.267 90.3C678.651 89.628 678.343 88.564 678.343 87.108V70.868H682.179Z" fill="#101828"/>
<path d="M693.836 91.28C691.634 91.28 689.87 90.6454 688.544 89.376C687.219 88.088 686.556 86.296 686.556 84C686.556 82.4694 686.855 81.1627 687.452 80.08C688.05 78.9974 688.88 78.1667 689.944 77.588C691.027 77.0094 692.259 76.72 693.64 76.72C695.059 76.72 696.263 77.0094 697.252 77.588C698.242 78.148 698.998 78.9227 699.52 79.912C700.043 80.8827 700.304 81.9934 700.304 83.244C700.304 83.6174 700.295 83.972 700.276 84.308C700.258 84.644 700.23 84.9427 700.192 85.204H690.308C690.458 86.2867 690.831 87.0987 691.428 87.64C692.044 88.1627 692.838 88.424 693.808 88.424C694.63 88.424 695.292 88.2654 695.796 87.948C696.3 87.6307 696.692 87.192 696.972 86.632L700.024 87.808C699.576 88.9094 698.792 89.768 697.672 90.384C696.552 90.9814 695.274 91.28 693.836 91.28ZM693.612 79.548C691.802 79.548 690.71 80.5467 690.336 82.544H696.636C696.524 81.5734 696.207 80.836 695.684 80.332C695.18 79.8094 694.49 79.548 693.612 79.548Z" fill="#101828"/>
<path d="M709.155 91.28C707.736 91.28 706.439 91.028 705.263 90.524C704.106 90.02 703.163 89.3107 702.435 88.396L704.647 86.156C705.095 86.828 705.692 87.3787 706.439 87.808C707.186 88.2374 708.072 88.452 709.099 88.452C709.827 88.452 710.406 88.3494 710.835 88.144C711.283 87.92 711.507 87.5747 711.507 87.108C711.507 86.8094 711.404 86.5574 711.199 86.352C710.994 86.128 710.583 85.9507 709.967 85.82L707.503 85.316C705.879 84.98 704.722 84.476 704.031 83.804C703.359 83.1134 703.023 82.2267 703.023 81.144C703.023 80.3787 703.247 79.66 703.695 78.988C704.162 78.316 704.852 77.7747 705.767 77.364C706.682 76.9347 707.82 76.72 709.183 76.72C712.02 76.72 714.055 77.588 715.287 79.324L712.991 81.564C712.58 80.9107 712.039 80.416 711.367 80.08C710.714 79.7254 710.023 79.548 709.295 79.548C707.652 79.548 706.831 80.0054 706.831 80.92C706.831 81.2187 706.962 81.48 707.223 81.704C707.484 81.9094 707.96 82.0867 708.651 82.236L711.507 82.824C712.888 83.104 713.878 83.58 714.475 84.252C715.072 84.9054 715.371 85.6987 715.371 86.632C715.371 87.976 714.83 89.0867 713.747 89.964C712.683 90.8414 711.152 91.28 709.155 91.28Z" fill="#101828"/>
<path d="M830.25 59C818.1 59 808.25 68.8497 808.25 81C808.25 93.1503 818.1 103 830.25 103C841.151 103 850.2 95.0716 851.946 84.6667H851.788C850.16 90.9925 844.417 95.6667 837.583 95.6667C829.483 95.6667 822.917 89.1002 822.917 81C822.917 72.8998 829.483 66.3333 837.583 66.3333C844.417 66.3333 850.16 71.0075 851.788 77.3333H851.946C850.2 66.9284 841.151 59 830.25 59Z" fill="#A4BCFD"/>
<path d="M808.25 81C808.25 68.8497 818.1 59 830.25 59C841.151 59 850.2 66.9284 851.946 77.3333H837.121C835.493 71.0075 829.751 66.3333 822.917 66.3333C814.816 66.3333 808.25 72.8998 808.25 81Z" fill="#3538CD"/>
<path d="M808.25 81C808.25 93.1503 818.1 103 830.25 103C841.151 103 850.2 95.0716 851.946 84.6667H837.121C835.493 90.9925 829.751 95.6667 822.917 95.6667C814.816 95.6667 808.25 89.1002 808.25 81Z" fill="#3538CD"/>
<path d="M883.689 77.5071C883.062 72.9829 879.582 70.3579 875.068 70.3579C869.749 70.3579 865.741 74.2358 865.741 80.8181C865.741 87.3906 869.699 91.2784 875.068 91.2784C879.91 91.2784 883.122 88.1463 883.689 84.2585L879.97 84.2386C879.503 86.625 877.554 87.9673 875.118 87.9673C871.817 87.9673 869.45 85.4914 869.45 80.8181C869.45 76.2244 871.797 73.669 875.128 73.669C877.604 73.669 879.543 75.071 879.97 77.5071H883.689Z" fill="#101828"/>
<path d="M891.303 91.3082C893.699 91.3082 895.131 90.1846 895.787 88.9019H895.907V91H899.367V80.7784C899.367 76.7414 896.076 75.5284 893.162 75.5284C889.951 75.5284 887.485 76.9602 886.689 79.7443L890.05 80.2215C890.408 79.1775 891.422 78.2826 893.182 78.2826C894.853 78.2826 895.767 79.1377 895.767 80.6392V80.6988C895.767 81.7329 894.684 81.7826 891.989 82.071C889.026 82.3892 886.192 83.2741 886.192 86.7144C886.192 89.7173 888.39 91.3082 891.303 91.3082ZM892.238 88.6633C890.736 88.6633 889.662 87.9772 889.662 86.6548C889.662 85.2727 890.865 84.696 892.476 84.4673C893.421 84.338 895.31 84.0994 895.777 83.7215V85.5213C895.777 87.2215 894.405 88.6633 892.238 88.6633Z" fill="#101828"/>
<path d="M910.613 75.7272H907.6V72.0681H904V75.7272H901.833V78.5113H904V87.0028C903.98 89.8764 906.069 91.2883 908.773 91.2088C909.797 91.1789 910.503 90.9801 910.891 90.8508L910.284 88.0369C910.086 88.0866 909.678 88.1761 909.23 88.1761C908.326 88.1761 907.6 87.8579 907.6 86.4062V78.5113H910.613V75.7272Z" fill="#101828"/>
<path d="M918.018 91.3082C920.414 91.3082 921.846 90.1846 922.502 88.9019H922.621V91H926.082V80.7784C926.082 76.7414 922.79 75.5284 919.877 75.5284C916.665 75.5284 914.2 76.9602 913.404 79.7443L916.765 80.2215C917.123 79.1775 918.137 78.2826 919.897 78.2826C921.567 78.2826 922.482 79.1377 922.482 80.6392V80.6988C922.482 81.7329 921.398 81.7826 918.704 82.071C915.741 82.3892 912.907 83.2741 912.907 86.7144C912.907 89.7173 915.104 91.3082 918.018 91.3082ZM918.952 88.6633C917.451 88.6633 916.377 87.9772 916.377 86.6548C916.377 85.2727 917.58 84.696 919.191 84.4673C920.136 84.338 922.025 84.0994 922.492 83.7215V85.5213C922.492 87.2215 921.12 88.6633 918.952 88.6633Z" fill="#101828"/>
<path d="M933.3 70.6363H929.701V91H933.3V70.6363Z" fill="#101828"/>
<path d="M943.664 91.2983C948.138 91.2983 950.982 88.1463 950.982 83.4233C950.982 78.6903 948.138 75.5284 943.664 75.5284C939.189 75.5284 936.345 78.6903 936.345 83.4233C936.345 88.1463 939.189 91.2983 943.664 91.2983ZM943.684 88.4147C941.208 88.4147 939.995 86.2073 939.995 83.4133C939.995 80.6193 941.208 78.3821 943.684 78.3821C946.12 78.3821 947.333 80.6193 947.333 83.4133C947.333 86.2073 946.12 88.4147 943.684 88.4147Z" fill="#101828"/>
<path d="M960.679 97.0454C964.805 97.0454 967.848 95.1562 967.848 91.2485V75.7272H964.298V78.2528H964.099C963.553 77.1491 962.409 75.5284 959.714 75.5284C956.185 75.5284 953.41 78.2926 953.41 83.3139C953.41 88.2954 956.185 90.7812 959.704 90.7812C962.32 90.7812 963.543 89.3792 964.099 88.2556H964.278V91.1491C964.278 93.3963 962.787 94.321 960.739 94.321C958.571 94.321 957.616 93.2968 957.179 92.4019L953.937 93.1875C954.594 95.3252 956.791 97.0454 960.679 97.0454ZM960.709 87.9573C958.332 87.9573 957.079 86.1079 957.079 83.294C957.079 80.5198 958.312 78.4815 960.709 78.4815C963.026 78.4815 964.298 80.4005 964.298 83.294C964.298 86.2073 963.006 87.9573 960.709 87.9573Z" fill="#101828"/>
<path fill-rule="evenodd" clip-rule="evenodd" d="M1083 93.4667C1089.89 93.4667 1095.47 87.8851 1095.47 81C1095.47 74.1149 1089.89 68.5333 1083 68.5333C1076.11 68.5333 1070.53 74.1149 1070.53 81C1070.53 87.8851 1076.11 93.4667 1083 93.4667ZM1083 103C1095.15 103 1105 93.1503 1105 81C1105 68.8497 1095.15 59 1083 59C1070.85 59 1061 68.8497 1061 81C1061 93.1503 1070.85 103 1083 103Z" fill="#6938EF"/>
<path d="M1083.25 81.4817C1085.54 79.1907 1089.26 79.1907 1091.55 81.4817L1102.96 92.8897C1105.25 95.1808 1105.25 98.8954 1102.96 101.186C1100.67 103.478 1096.95 103.478 1094.66 101.186L1083.25 89.7785C1080.96 87.4874 1080.96 83.7728 1083.25 81.4817Z" fill="#F670C7"/>
<path d="M1086.45 92.9817L1093.7 100.227C1097.18 98.2889 1100.07 95.4358 1102.06 91.9937L1094.87 84.8077C1093.61 88.7471 1090.44 91.8335 1086.45 92.9817Z" fill="#6519BA"/>
<path d="M1140.52 93.1C1139.89 93.884 1139.11 94.4813 1138.2 94.892C1137.3 95.3027 1136.31 95.508 1135.23 95.508C1133.77 95.508 1132.46 95.1907 1131.28 94.556C1130.1 93.94 1128.76 92.8387 1127.25 91.252C1125.47 91.028 1123.89 90.4587 1122.49 89.544C1121.11 88.6293 1120.02 87.4533 1119.24 86.016C1118.47 84.56 1118.09 82.9547 1118.09 81.2C1118.09 79.2773 1118.55 77.5507 1119.46 76.02C1120.4 74.4707 1121.68 73.2573 1123.3 72.38C1124.94 71.5027 1126.78 71.064 1128.82 71.064C1130.85 71.064 1132.68 71.5027 1134.3 72.38C1135.93 73.2573 1137.21 74.4707 1138.14 76.02C1139.07 77.5507 1139.54 79.2773 1139.54 81.2C1139.54 83.4773 1138.9 85.4747 1137.61 87.192C1136.34 88.9093 1134.65 90.104 1132.54 90.776C1133.01 91.2613 1133.45 91.6067 1133.88 91.812C1134.33 92.036 1134.81 92.148 1135.31 92.148C1136.53 92.148 1137.59 91.6627 1138.5 90.692L1140.52 93.1ZM1122.68 81.2C1122.68 82.4133 1122.95 83.496 1123.47 84.448C1124.01 85.4 1124.75 86.1467 1125.68 86.688C1126.61 87.2107 1127.66 87.472 1128.82 87.472C1129.97 87.472 1131.02 87.2107 1131.95 86.688C1132.89 86.1467 1133.61 85.4 1134.14 84.448C1134.68 83.496 1134.95 82.4133 1134.95 81.2C1134.95 79.9867 1134.68 78.904 1134.14 77.952C1133.61 77 1132.89 76.2627 1131.95 75.74C1131.02 75.1987 1129.97 74.928 1128.82 74.928C1127.66 74.928 1126.61 75.1987 1125.68 75.74C1124.75 76.2627 1124.01 77 1123.47 77.952C1122.95 78.904 1122.68 79.9867 1122.68 81.2Z" fill="#101828"/>
<path d="M1157.82 75.936V91H1153.67V89.208C1153.09 89.8613 1152.4 90.3653 1151.6 90.72C1150.8 91.056 1149.93 91.224 1149 91.224C1147.02 91.224 1145.45 90.6547 1144.29 89.516C1143.14 88.3773 1142.56 86.688 1142.56 84.448V75.936H1146.93V83.804C1146.93 86.2307 1147.94 87.444 1149.98 87.444C1151.02 87.444 1151.86 87.108 1152.5 86.436C1153.13 85.7453 1153.45 84.728 1153.45 83.384V75.936H1157.82Z" fill="#101828"/>
<path d="M1169.03 91.224C1167.45 91.224 1166.02 90.8973 1164.75 90.244C1163.5 89.572 1162.52 88.648 1161.81 87.472C1161.1 86.296 1160.74 84.9613 1160.74 83.468C1160.74 81.9747 1161.1 80.64 1161.81 79.464C1162.52 78.288 1163.5 77.3733 1164.75 76.72C1166.02 76.048 1167.45 75.712 1169.03 75.712C1170.62 75.712 1172.04 76.048 1173.29 76.72C1174.54 77.3733 1175.52 78.288 1176.23 79.464C1176.94 80.64 1177.29 81.9747 1177.29 83.468C1177.29 84.9613 1176.94 86.296 1176.23 87.472C1175.52 88.648 1174.54 89.572 1173.29 90.244C1172.04 90.8973 1170.62 91.224 1169.03 91.224ZM1169.03 87.64C1170.15 87.64 1171.07 87.2667 1171.78 86.52C1172.5 85.7547 1172.87 84.7373 1172.87 83.468C1172.87 82.1987 1172.5 81.1907 1171.78 80.444C1171.07 79.6787 1170.15 79.296 1169.03 79.296C1167.91 79.296 1166.99 79.6787 1166.26 80.444C1165.53 81.1907 1165.17 82.1987 1165.17 83.468C1165.17 84.7373 1165.53 85.7547 1166.26 86.52C1166.99 87.2667 1167.91 87.64 1169.03 87.64Z" fill="#101828"/>
<path d="M1189.93 90.272C1189.5 90.5893 1188.97 90.832 1188.33 91C1187.72 91.1493 1187.06 91.224 1186.37 91.224C1184.58 91.224 1183.19 90.7667 1182.2 89.852C1181.23 88.9373 1180.74 87.5933 1180.74 85.82V79.632H1178.42V76.272H1180.74V72.604H1185.11V76.272H1188.86V79.632H1185.11V85.764C1185.11 86.3987 1185.27 86.8933 1185.59 87.248C1185.92 87.584 1186.39 87.752 1186.99 87.752C1187.68 87.752 1188.27 87.5653 1188.75 87.192L1189.93 90.272Z" fill="#101828"/>
<path d="M1192.38 75.936H1196.75V91H1192.38V75.936ZM1194.56 73.836C1193.76 73.836 1193.11 73.6027 1192.6 73.136C1192.1 72.6693 1191.85 72.0907 1191.85 71.4C1191.85 70.7093 1192.1 70.1307 1192.6 69.664C1193.11 69.1973 1193.76 68.964 1194.56 68.964C1195.37 68.964 1196.02 69.188 1196.52 69.636C1197.03 70.084 1197.28 70.644 1197.28 71.316C1197.28 72.044 1197.03 72.6507 1196.52 73.136C1196.02 73.6027 1195.37 73.836 1194.56 73.836Z" fill="#101828"/>
<path d="M1215.56 83.524C1215.56 83.58 1215.53 83.972 1215.47 84.7H1204.08C1204.28 85.6333 1204.77 86.3707 1205.53 86.912C1206.3 87.4533 1207.25 87.724 1208.39 87.724C1209.17 87.724 1209.86 87.612 1210.46 87.388C1211.08 87.1453 1211.65 86.772 1212.17 86.268L1214.49 88.788C1213.07 90.412 1211 91.224 1208.28 91.224C1206.58 91.224 1205.08 90.8973 1203.77 90.244C1202.46 89.572 1201.45 88.648 1200.75 87.472C1200.04 86.296 1199.68 84.9613 1199.68 83.468C1199.68 81.9933 1200.03 80.668 1200.72 79.492C1201.43 78.2973 1202.39 77.3733 1203.6 76.72C1204.83 76.048 1206.21 75.712 1207.72 75.712C1209.19 75.712 1210.53 76.0293 1211.72 76.664C1212.92 77.2987 1213.85 78.2133 1214.52 79.408C1215.21 80.584 1215.56 81.956 1215.56 83.524ZM1207.75 79.016C1206.76 79.016 1205.93 79.296 1205.25 79.856C1204.58 80.416 1204.17 81.1813 1204.02 82.152H1211.44C1211.29 81.2 1210.88 80.444 1210.21 79.884C1209.54 79.3053 1208.72 79.016 1207.75 79.016Z" fill="#101828"/>
<path d="M1227.62 75.712C1229.49 75.712 1230.99 76.272 1232.13 77.392C1233.29 78.512 1233.87 80.1733 1233.87 82.376V91H1229.5V83.048C1229.5 81.8533 1229.24 80.9667 1228.71 80.388C1228.19 79.7907 1227.43 79.492 1226.45 79.492C1225.34 79.492 1224.47 79.8373 1223.81 80.528C1223.16 81.2 1222.83 82.208 1222.83 83.552V91H1218.47V75.936H1222.64V77.7C1223.22 77.0653 1223.93 76.58 1224.79 76.244C1225.65 75.8893 1226.59 75.712 1227.62 75.712Z" fill="#101828"/>
<path d="M1247.54 90.272C1247.11 90.5893 1246.58 90.832 1245.94 91C1245.33 91.1493 1244.68 91.224 1243.98 91.224C1242.19 91.224 1240.8 90.7667 1239.81 89.852C1238.84 88.9373 1238.36 87.5933 1238.36 85.82V79.632H1236.03V76.272H1238.36V72.604H1242.72V76.272H1246.48V79.632H1242.72V85.764C1242.72 86.3987 1242.88 86.8933 1243.2 87.248C1243.54 87.584 1244 87.752 1244.6 87.752C1245.29 87.752 1245.88 87.5653 1246.36 87.192L1247.54 90.272Z" fill="#101828"/>
</svg>
