<svg width="106" height="106" viewBox="0 0 106 106" fill="none" xmlns="http://www.w3.org/2000/svg">
<g filter="url(#filter0_dd_1_1869)">
<rect x="3" y="2" width="100" height="100" rx="50" fill="white"/>
<path d="M53 68.875C55.3198 68.8736 57.6143 68.3923 59.7391 67.4614C61.8639 66.5305 63.7732 65.17 65.3469 63.4656L65.4594 63.3813C68.0704 60.5229 69.6193 56.8537 69.8461 52.989C70.073 49.1242 68.9641 45.299 66.7055 42.1548C64.4468 39.0105 61.1757 36.7385 57.4408 35.7198C53.7059 34.701 49.7342 34.9975 46.1919 36.5594C42.6495 38.1213 39.752 40.8537 37.9851 44.2984C36.2182 47.7431 35.6895 51.6906 36.4876 55.4788C37.2857 59.2671 39.3621 62.6657 42.3685 65.1047C45.375 67.5438 49.1286 68.875 53 68.875ZM38.0844 53.5656L46.6813 62.9406L48.0688 61.6656L39.1344 51.9344L40.6531 52.2625C45.4438 53.3031 49.7188 57.3438 50.8063 61.8531L52.0625 67C48.5197 66.7768 45.1708 65.3044 42.6114 62.8445C40.052 60.3847 38.4479 57.0968 38.0844 53.5656ZM53.9375 67L55.1656 61.9C56.2531 57.3906 60.5281 53.35 65.3188 52.3094L66.8375 51.9813L57.9313 61.675L59.3188 62.95L67.9156 53.575C67.5501 57.1045 65.9451 60.3902 63.3859 62.8481C60.8266 65.3061 57.4789 66.7772 53.9375 67ZM53 37C56.5966 37.0044 60.072 38.3009 62.7926 40.6533C65.5133 43.0057 67.2981 46.2573 67.8219 49.8156L64.9531 50.425C59.4875 51.6156 54.6406 56.2375 53.375 61.4219L53 62.9688L52.625 61.4219C51.3781 56.2375 46.5125 51.6156 41.0469 50.425L38.1781 49.8156C38.7019 46.2573 40.4867 43.0057 43.2074 40.6533C45.9281 38.3009 49.4034 37.0044 53 37Z" fill="#FBAF5B"/>
<path d="M26.75 46.375C26.5014 46.375 26.2629 46.4738 26.0871 46.6496C25.9113 46.8254 25.8125 47.0639 25.8125 47.3125V56.6875C25.8125 56.9361 25.9113 57.1746 26.0871 57.3504C26.2629 57.5262 26.5014 57.625 26.75 57.625H30.2469C30.8081 59.9119 31.7155 62.0996 32.9375 64.1125L30.5 66.5875C30.4093 66.675 30.3371 66.7798 30.2878 66.8958C30.2385 67.0118 30.2131 67.1365 30.2131 67.2625C30.2131 67.3885 30.2385 67.5132 30.2878 67.6292C30.3371 67.7452 30.4093 67.85 30.5 67.9375L37.0625 74.5C37.2382 74.6746 37.4758 74.7726 37.7234 74.7726C37.9711 74.7726 38.2087 74.6746 38.3844 74.5L40.8594 72.025C42.8787 73.2628 45.0762 74.1829 47.375 74.7531V78.25C47.375 78.4986 47.4738 78.7371 47.6496 78.9129C47.8254 79.0887 48.0639 79.1875 48.3125 79.1875H57.6875C57.9361 79.1875 58.1746 79.0887 58.3504 78.9129C58.5262 78.7371 58.625 78.4986 58.625 78.25V74.7531C60.9119 74.1919 63.0996 73.2845 65.1125 72.0625L67.5875 74.5C67.675 74.5907 67.7798 74.6629 67.8958 74.7122C68.0118 74.7615 68.1365 74.7869 68.2625 74.7869C68.3885 74.7869 68.5132 74.7615 68.6292 74.7122C68.7452 74.6629 68.85 74.5907 68.9375 74.5L75.5 67.9375C75.6746 67.7618 75.7726 67.5242 75.7726 67.2766C75.7726 67.0289 75.6746 66.7913 75.5 66.6156L73.0625 64.1125C74.2845 62.0996 75.1919 59.9119 75.7531 57.625H79.25C79.4986 57.625 79.7371 57.5262 79.9129 57.3504C80.0887 57.1746 80.1875 56.9361 80.1875 56.6875V47.3125C80.1875 47.0639 80.0887 46.8254 79.9129 46.6496C79.7371 46.4738 79.4986 46.375 79.25 46.375H75.7531C75.1919 44.0881 74.2845 41.9004 73.0625 39.8875L75.5 37.4125C75.5907 37.325 75.6629 37.2202 75.7122 37.1042C75.7615 36.9882 75.7869 36.8635 75.7869 36.7375C75.7869 36.6115 75.7615 36.4868 75.7122 36.3708C75.6629 36.2548 75.5907 36.15 75.5 36.0625L68.9375 29.5C68.7618 29.3254 68.5242 29.2274 68.2766 29.2274C68.0289 29.2274 67.7913 29.3254 67.6156 29.5L65.1125 31.9375C63.0996 30.7155 60.9119 29.8081 58.625 29.2469V25.75C58.625 25.5014 58.5262 25.2629 58.3504 25.0871C58.1746 24.9113 57.9361 24.8125 57.6875 24.8125H48.3125C48.0639 24.8125 47.8254 24.9113 47.6496 25.0871C47.4738 25.2629 47.375 25.5014 47.375 25.75V29.2469C45.0881 29.8081 42.9004 30.7155 40.8875 31.9375L38.4125 29.5C38.325 29.4093 38.2202 29.3371 38.1042 29.2878C37.9882 29.2385 37.8635 29.2131 37.7375 29.2131C37.6115 29.2131 37.4868 29.2385 37.3708 29.2878C37.2548 29.3371 37.15 29.4093 37.0625 29.5L30.5 36.0625C30.3254 36.2382 30.2274 36.4758 30.2274 36.7234C30.2274 36.9711 30.3254 37.2087 30.5 37.3844L32.975 39.8594C31.7372 41.8787 30.8171 44.0762 30.2469 46.375H26.75ZM31.9062 47.5094C32.4539 44.9317 33.4742 42.4778 34.9156 40.2719C35.0348 40.0912 35.0878 39.8748 35.0656 39.6595C35.0434 39.4442 34.9473 39.2432 34.7937 39.0906L32.45 36.7562L37.7562 31.45L40.0906 33.7937C40.2432 33.9473 40.4442 34.0434 40.6595 34.0656C40.8748 34.0878 41.0912 34.0348 41.2719 33.9156C43.4778 32.4742 45.9317 31.4539 48.5094 30.9062C48.7226 30.8605 48.9132 30.7419 49.0484 30.5708C49.1835 30.3996 49.2549 30.1868 49.25 29.9688V26.6875H56.75V29.9969C56.7451 30.2149 56.8164 30.4278 56.9516 30.5989C57.0868 30.77 57.2774 30.8886 57.4906 30.9344C60.0683 31.482 62.5221 32.5023 64.7281 33.9437C64.9088 34.0629 65.1252 34.1159 65.3405 34.0937C65.5558 34.0715 65.7568 33.9754 65.9094 33.8219L68.2437 31.4781L73.55 36.7844L71.2062 39.1188C71.0527 39.2713 70.9567 39.4723 70.9344 39.6876C70.9122 39.9029 70.9652 40.1193 71.0844 40.3C72.5258 42.506 73.5461 44.9599 74.0938 47.5375C74.1395 47.7507 74.2581 47.9413 74.4292 48.0765C74.6004 48.2117 74.8132 48.283 75.0312 48.2781H78.3125V55.7781H75.0031C74.7851 55.7733 74.5722 55.8446 74.4011 55.9798C74.23 56.1149 74.1114 56.3055 74.0656 56.5187C73.518 59.0964 72.4977 61.5503 71.0562 63.7563C70.9371 63.9369 70.8841 64.1533 70.9063 64.3686C70.9285 64.5839 71.0246 64.7849 71.1781 64.9375L73.5219 67.2719L68.2156 72.5781L65.8813 70.2344C65.7287 70.0808 65.5277 69.9848 65.3124 69.9626C65.0971 69.9403 64.8807 69.9933 64.7 70.1125C62.494 71.5539 60.0401 72.5743 57.4625 73.1219C57.2493 73.1676 57.0587 73.2863 56.9235 73.4574C56.7883 73.6285 56.717 73.8414 56.7219 74.0594V77.3125H49.25V74.0031C49.2549 73.7851 49.1835 73.5722 49.0484 73.4011C48.9132 73.23 48.7226 73.1114 48.5094 73.0656C45.9317 72.518 43.4778 71.4977 41.2719 70.0562C41.0912 69.9371 40.8748 69.8841 40.6595 69.9063C40.4442 69.9285 40.2432 70.0246 40.0906 70.1781L37.7562 72.5219L32.45 67.2156L34.7937 64.8813C34.9473 64.7287 35.0434 64.5277 35.0656 64.3124C35.0878 64.0971 35.0348 63.8807 34.9156 63.7C33.4774 61.5026 32.4572 59.0585 31.9062 56.4906C31.8605 56.2774 31.7419 56.0868 31.5708 55.9516C31.3996 55.8164 31.1868 55.7451 30.9688 55.75H27.6875V48.25H30.9969C31.2101 48.2484 31.4164 48.1741 31.5817 48.0394C31.747 47.9048 31.8615 47.7178 31.9062 47.5094Z" fill="#FBAF5B"/>
<path d="M44.1781 50.9781L52.6156 54.7281C52.7365 54.7825 52.8675 54.8105 53 54.8105C53.1325 54.8105 53.2635 54.7825 53.3844 54.7281L61.8219 50.9781C61.9864 50.9042 62.126 50.7844 62.2241 50.6331C62.3222 50.4817 62.3746 50.3053 62.375 50.125V42.625C62.3746 42.4447 62.3222 42.2683 62.2241 42.1169C62.126 41.9656 61.9864 41.8458 61.8219 41.7719L53.3844 38.0219C53.2635 37.9675 53.1325 37.9395 53 37.9395C52.8675 37.9395 52.7365 37.9675 52.6156 38.0219L44.1781 41.7719C44.0136 41.8458 43.874 41.9656 43.7759 42.1169C43.6778 42.2683 43.6254 42.4447 43.625 42.625V50.125C43.6254 50.3053 43.6778 50.4817 43.7759 50.6331C43.874 50.7844 44.0136 50.9042 44.1781 50.9781ZM45.5 44.0687L52.0625 46.9844V52.4312L45.5 49.5156V44.0687ZM53.9375 52.4312V46.9844L60.5 44.0687V49.5156L53.9375 52.4312ZM53 39.8969L59.1313 42.625L53 45.3531L46.8687 42.625L53 39.8969Z" fill="#FBAF5B"/>
</g>
<defs>
<filter id="filter0_dd_1_1869" x="0" y="0" width="106" height="106" filterUnits="userSpaceOnUse" color-interpolation-filters="sRGB">
<feFlood flood-opacity="0" result="BackgroundImageFix"/>
<feColorMatrix in="SourceAlpha" type="matrix" values="0 0 0 0 0 0 0 0 0 0 0 0 0 0 0 0 0 0 127 0" result="hardAlpha"/>
<feOffset dy="1"/>
<feGaussianBlur stdDeviation="1"/>
<feColorMatrix type="matrix" values="0 0 0 0 0.0627451 0 0 0 0 0.0941176 0 0 0 0 0.156863 0 0 0 0.06 0"/>
<feBlend mode="normal" in2="BackgroundImageFix" result="effect1_dropShadow_1_1869"/>
<feColorMatrix in="SourceAlpha" type="matrix" values="0 0 0 0 0 0 0 0 0 0 0 0 0 0 0 0 0 0 127 0" result="hardAlpha"/>
<feOffset dy="1"/>
<feGaussianBlur stdDeviation="1.5"/>
<feColorMatrix type="matrix" values="0 0 0 0 0.0627451 0 0 0 0 0.0941176 0 0 0 0 0.156863 0 0 0 0.1 0"/>
<feBlend mode="normal" in2="effect1_dropShadow_1_1869" result="effect2_dropShadow_1_1869"/>
<feBlend mode="normal" in="SourceGraphic" in2="effect2_dropShadow_1_1869" result="shape"/>
</filter>
</defs>
</svg>
