<svg width="106" height="106" viewBox="0 0 106 106" fill="none" xmlns="http://www.w3.org/2000/svg">
<g filter="url(#filter0_dd_1_1880)">
<rect x="3" y="2" width="100" height="100" rx="50" fill="white"/>
<path d="M73.2818 49.928C74.2263 47.1317 74.0693 44.0804 72.8428 41.3958C71.6163 38.7111 69.4124 36.595 66.6802 35.4785C63.948 34.3619 60.8929 34.3289 58.1372 35.3862C55.3814 36.4434 53.1324 38.5114 51.8482 41.169C50.6753 40.5064 49.3672 40.1189 48.0227 40.0357C46.6781 39.9526 45.3323 40.176 44.0867 40.6891C42.8412 41.2022 41.7284 41.9916 40.8326 42.9976C39.9367 44.0036 39.2811 45.2001 38.9152 46.4965C37.3129 46.0557 35.6347 45.9627 33.9934 46.2239C32.3521 46.485 30.7857 47.0942 29.3992 48.0106C28.0128 48.9269 26.8384 50.1293 25.9548 51.5369C25.0713 52.9445 24.4991 54.5249 24.2767 56.1718C24.0542 57.8188 24.1866 59.4943 24.665 61.0859C25.1434 62.6775 25.9567 64.1483 27.0503 65.3997C28.144 66.6511 29.4926 67.654 31.0058 68.3413C32.519 69.0285 34.1617 69.3841 35.8236 69.3842H72.0607C74.5453 69.3847 76.9366 68.4382 78.7479 66.7374C80.5591 65.0366 81.654 62.7094 81.8096 60.2297C81.9653 57.7499 81.1699 55.3041 79.5856 53.3902C78.0012 51.4763 75.7469 50.2382 73.2818 49.928Z" fill="#80CDF6"/>
</g>
<defs>
<filter id="filter0_dd_1_1880" x="0" y="0" width="106" height="106" filterUnits="userSpaceOnUse" color-interpolation-filters="sRGB">
<feFlood flood-opacity="0" result="BackgroundImageFix"/>
<feColorMatrix in="SourceAlpha" type="matrix" values="0 0 0 0 0 0 0 0 0 0 0 0 0 0 0 0 0 0 127 0" result="hardAlpha"/>
<feOffset dy="1"/>
<feGaussianBlur stdDeviation="1"/>
<feColorMatrix type="matrix" values="0 0 0 0 0.0627451 0 0 0 0 0.0941176 0 0 0 0 0.156863 0 0 0 0.06 0"/>
<feBlend mode="normal" in2="BackgroundImageFix" result="effect1_dropShadow_1_1880"/>
<feColorMatrix in="SourceAlpha" type="matrix" values="0 0 0 0 0 0 0 0 0 0 0 0 0 0 0 0 0 0 127 0" result="hardAlpha"/>
<feOffset dy="1"/>
<feGaussianBlur stdDeviation="1.5"/>
<feColorMatrix type="matrix" values="0 0 0 0 0.0627451 0 0 0 0 0.0941176 0 0 0 0 0.156863 0 0 0 0.1 0"/>
<feBlend mode="normal" in2="effect1_dropShadow_1_1880" result="effect2_dropShadow_1_1880"/>
<feBlend mode="normal" in="SourceGraphic" in2="effect2_dropShadow_1_1880" result="shape"/>
</filter>
</defs>
</svg>
