<svg width="104" height="39" viewBox="0 0 104 39" fill="none" xmlns="http://www.w3.org/2000/svg">
<path d="M16.4992 2H37.5808L22.0816 24.9729H1L16.4992 2Z" fill="#007AFF"/>
<path d="M17.4224 27.102L11.4192 36H33.5008L49 13.0271H32.7024L23.2064 27.102H17.4224Z" fill="#312ECB"/>
<path d="M54.6971 32.863C54.5201 32.863 54.3541 32.7927 54.1992 32.6519C54.0664 32.4877 54 32.3118 54 32.1241C54 32.0068 54.0111 31.9012 54.0332 31.8074L61.8343 9.21683C61.9007 8.95879 62.0334 8.73593 62.2326 8.54826C62.4539 8.33714 62.7527 8.23157 63.1289 8.23157H68.0419C68.4182 8.23157 68.7059 8.33714 68.905 8.54826C69.1263 8.73593 69.2702 8.95879 69.3366 9.21683L77.1045 31.8074C77.1487 31.9012 77.1708 32.0068 77.1708 32.1241C77.1708 32.3118 77.0934 32.4877 76.9385 32.6519C76.8057 32.7927 76.6397 32.863 76.4405 32.863H72.3574C72.0255 32.863 71.771 32.7809 71.5939 32.6167C71.439 32.4291 71.3394 32.2649 71.2951 32.1241L70.0005 28.5349H61.1372L59.8757 32.1241C59.8314 32.2649 59.7319 32.4291 59.5769 32.6167C59.422 32.7809 59.1565 32.863 58.7802 32.863H54.6971ZM62.4982 23.4679H68.6727L65.5854 14.1783L62.4982 23.4679Z" fill="black"/>
<path d="M80.916 32.863C80.6726 32.863 80.4734 32.7809 80.3185 32.6167C80.1636 32.4291 80.0861 32.2179 80.0861 31.9834V15.4451C80.0861 15.187 80.1636 14.9759 80.3185 14.8117C80.4734 14.6475 80.6726 14.5654 80.916 14.5654H84.8332C85.0766 14.5654 85.2758 14.6475 85.4307 14.8117C85.5856 14.9759 85.6631 15.187 85.6631 15.4451V31.9834C85.6631 32.2179 85.5856 32.4291 85.4307 32.6167C85.2758 32.7809 85.0766 32.863 84.8332 32.863H80.916ZM80.8828 11.9263C80.6394 11.9263 80.4402 11.8442 80.2853 11.68C80.1304 11.5158 80.0529 11.3046 80.0529 11.0466V7.87969C80.0529 7.64511 80.1304 7.44571 80.2853 7.2815C80.4402 7.09383 80.6394 7 80.8828 7H84.8664C85.0877 7 85.2758 7.09383 85.4307 7.2815C85.6077 7.44571 85.6963 7.64511 85.6963 7.87969V11.0466C85.6963 11.3046 85.6077 11.5158 85.4307 11.68C85.2758 11.8442 85.0877 11.9263 84.8664 11.9263H80.8828Z" fill="black"/>
<path d="M92.1158 32.863C91.8724 32.863 91.6732 32.7809 91.5183 32.6167C91.3634 32.4291 91.2859 32.2179 91.2859 31.9834V15.4451C91.2859 15.2105 91.3634 15.0111 91.5183 14.8469C91.6732 14.6592 91.8724 14.5654 92.1158 14.5654H95.9334C96.1768 14.5654 96.376 14.6592 96.5309 14.8469C96.7079 15.0111 96.7965 15.2105 96.7965 15.4451V16.8526C97.3719 16.1254 98.069 15.5624 98.8878 15.1636C99.7288 14.7648 100.669 14.5654 101.709 14.5654H103.17C103.414 14.5654 103.613 14.6475 103.768 14.8117C103.923 14.9759 104 15.187 104 15.4451V19.0694C104 19.304 103.923 19.5151 103.768 19.7028C103.613 19.867 103.414 19.9491 103.17 19.9491H99.9501C99.0427 19.9491 98.3345 20.2189 97.8255 20.7584C97.3387 21.2745 97.0952 22.0135 97.0952 22.9753V31.9834C97.0952 32.2179 97.0067 32.4291 96.8297 32.6167C96.6747 32.7809 96.4756 32.863 96.2321 32.863H92.1158Z" fill="black"/>
</svg>
