<svg width="59" height="60" viewBox="0 0 59 60" fill="none" xmlns="http://www.w3.org/2000/svg">
<path d="M1.71064 34.0622L5.23224 34.9394C5.41868 34.986 5.56083 35.1363 5.60278 35.3322C6.26337 38.3738 7.33728 40.9965 8.79415 43.1277C8.91427 43.3029 8.92552 43.5163 8.82497 43.6847L6.97153 46.7769C6.56665 47.4535 6.67259 48.316 7.22958 48.8743L10.6204 52.2708C11.1781 52.8304 12.0412 52.9385 12.7208 52.5307L15.8499 50.6536C16.0115 50.5571 16.2146 50.563 16.382 50.6693C18.7724 52.1927 21.3884 53.2769 24.1583 53.8917C24.3518 53.9349 24.501 54.0749 24.5466 54.2564L25.4328 57.7964C25.6252 58.5621 26.3106 59.0969 27.0998 59.0969H31.9001C32.6893 59.0969 33.3747 58.5621 33.5671 57.7958L34.4533 54.256C34.4989 54.0746 34.6475 53.9349 34.8411 53.8917C37.6086 53.2775 40.2281 52.1931 42.6261 50.6687C42.7931 50.5624 42.9972 50.5571 43.1576 50.6536L46.278 52.5293C46.9564 52.9365 47.8206 52.8311 48.3801 52.2705L51.7703 48.8741C52.3273 48.3161 52.4334 47.4536 52.0278 46.7767L50.1565 43.654C50.0601 43.4929 50.0659 43.2896 50.1719 43.1226C51.6951 40.7254 52.7801 38.1033 53.3958 35.329C53.4385 35.1351 53.5788 34.9868 53.7611 34.9412L57.2893 34.0622C58.0565 33.8709 58.5922 33.1855 58.5922 32.3948V27.5966C58.5922 26.8057 58.0564 26.1202 57.2893 25.929L53.7646 25.0511C53.5811 25.0053 53.4402 24.8554 53.397 24.6599C52.7896 21.9007 51.7052 19.28 50.1736 16.8706C50.0665 16.7031 50.0611 16.4977 50.1583 16.3354L52.0266 13.224C52.4327 12.5468 52.3273 11.6839 51.7697 11.1254L48.3789 7.72837C47.82 7.1695 46.9576 7.06239 46.2797 7.46845L43.1607 9.33759C42.9979 9.43439 42.7936 9.42841 42.6249 9.32224C40.2161 7.79083 37.5954 6.70626 34.8357 6.09864C34.6403 6.0554 34.4906 5.9149 34.445 5.73068L33.5665 2.20661C33.3759 1.43915 32.6899 0.903137 31.899 0.903137H27.1009C26.31 0.903137 25.6246 1.43892 25.4328 2.20638L24.5543 5.73396C24.5093 5.9163 24.3602 6.05634 24.1666 6.09923C21.3814 6.71575 18.7594 7.80267 16.3733 9.32939C16.2051 9.43685 16.0009 9.44189 15.8399 9.34532L12.722 7.47079C12.0436 7.06357 11.18 7.16892 10.6199 7.72954L7.23017 11.1254C6.67247 11.6845 6.56653 12.5476 6.97329 13.224L8.84161 16.3351C8.93864 16.4976 8.93337 16.7031 8.82626 16.8709C7.29485 19.2799 6.21028 21.9006 5.6029 24.6601C5.55966 24.8554 5.4188 25.0052 5.2347 25.0511L1.71064 25.929C0.943409 26.1202 0.407745 26.8057 0.407745 27.5966V32.3948C0.407745 33.1854 0.943409 33.8709 1.71064 34.0622ZM1.62005 27.5966C1.62005 27.3636 1.77814 27.1618 2.00419 27.1052L5.52767 26.2274C6.16224 26.0696 6.64411 25.5688 6.78685 24.9202C7.364 22.2998 8.39407 19.8106 9.84919 17.5217C10.2038 16.9644 10.2162 16.2709 9.88118 15.7114L8.01286 12.5997C7.89275 12.4005 7.92403 12.1466 8.08868 11.982L11.4783 8.58618C11.6429 8.42165 11.8974 8.38966 12.097 8.50978L15.2149 10.3843C15.7749 10.7205 16.4681 10.7081 17.0269 10.3506C19.293 8.90083 21.7829 7.86876 24.4284 7.28329C25.0742 7.14032 25.5739 6.65904 25.7313 6.02716L26.6097 2.49993C26.6659 2.27376 26.8677 2.11579 27.1011 2.11579H31.8991C32.1317 2.11579 32.3336 2.27353 32.3899 2.4997L33.2683 6.02376C33.4258 6.65751 33.9265 7.13997 34.5754 7.28294C37.1967 7.86009 39.686 8.8904 41.9751 10.3455C42.5328 10.6998 43.2259 10.712 43.7835 10.3781L46.9026 8.50896C47.1015 8.38943 47.3567 8.42048 47.5212 8.5856L50.9115 11.9824C51.076 12.1467 51.1068 12.4009 50.9873 12.6004L49.119 15.7121C48.7839 16.2712 48.7963 16.9647 49.1509 17.5217C50.6061 19.8109 51.636 22.3002 52.2133 24.9202C52.3559 25.569 52.8378 26.0699 53.4719 26.2276L56.9959 27.1054C57.2221 27.1619 57.3801 27.3638 57.3801 27.5968V32.3951C57.3801 32.6277 57.222 32.8298 56.9959 32.8861L53.4684 33.7651C52.8373 33.922 52.356 34.4208 52.2122 35.0662C51.6274 37.7026 50.5967 40.1945 49.1493 42.4725C48.7953 43.0289 48.7834 43.7206 49.1173 44.2774L50.988 47.3997C51.1075 47.5992 51.0762 47.8535 50.9122 48.0178L47.5219 51.4142C47.358 51.5788 47.1034 51.6105 46.9033 51.4903L43.7828 49.6148C43.2251 49.2788 42.5326 49.291 41.9761 49.6453C39.6965 51.0938 37.2078 52.1242 34.5776 52.7082C33.933 52.8518 33.4346 53.3325 33.2777 53.962L32.3915 57.5008C32.3347 57.7267 32.1327 57.8844 31.9001 57.8844H27.0998C26.8672 57.8844 26.6652 57.7267 26.6084 57.5014L25.7222 53.9614C25.5642 53.3315 25.0658 52.8514 24.4211 52.7082C21.7898 52.1239 19.3041 51.0938 17.0338 49.6468C16.4722 49.2893 15.781 49.2811 15.226 49.614L12.0968 51.4911C11.8968 51.6104 11.6427 51.5793 11.4788 51.4145L8.08798 48.018C7.92403 47.8535 7.89263 47.5992 8.01157 47.4L9.86442 44.3081C10.2066 43.7372 10.1793 43.0049 9.79458 42.4431C8.42653 40.4418 7.41485 37.963 6.7879 35.0748C6.64646 34.4247 6.16282 33.9222 5.52579 33.7632L2.00419 32.886C1.77802 32.8297 1.62005 32.6276 1.62005 32.3949V27.5966Z" fill="#116FFF"/>
</svg>
